<svg xmlns="http://www.w3.org/2000/svg" xmlns:xlink="http://www.w3.org/1999/xlink" viewBox="0 0 122.02 123.29"><defs><style>.cls-1{fill:#870808;}.cls-2{fill:url(#linear-gradient);}.cls-3{fill:url(#linear-gradient-2);}.cls-4{fill:url(#linear-gradient-3);}.cls-5{fill:url(#linear-gradient-4);}.cls-6{opacity:0.65;fill:url(#linear-gradient-5);}.cls-7{fill:url(#radial-gradient);}.cls-8{fill:url(#radial-gradient-2);}.cls-9{fill:url(#radial-gradient-3);}.cls-10{fill:url(#radial-gradient-4);}.cls-11{fill:url(#radial-gradient-5);}.cls-12{fill:url(#radial-gradient-6);}.cls-13{fill:url(#radial-gradient-7);}.cls-14{fill:url(#radial-gradient-8);}.cls-15{fill:url(#radial-gradient-9);}.cls-16{fill:url(#radial-gradient-10);}.cls-17{opacity:0.4;fill:url(#linear-gradient-6);}.cls-18,.cls-25,.cls-28{opacity:0.5;}.cls-18{fill:url(#linear-gradient-7);}.cls-19{opacity:0.74;fill:url(#linear-gradient-8);}.cls-20{opacity:0.69;fill:url(#linear-gradient-9);}.cls-21{fill:url(#linear-gradient-10);}.cls-22{fill:url(#radial-gradient-11);}.cls-23{font-size:51.29px;font-family:MyriadPro-Regular, Myriad Pro;}.cls-24,.cls-28{fill:#73c0ff;}.cls-24,.cls-26{opacity:0.6;}.cls-25,.cls-26,.cls-29{fill:#fff;}.cls-27{opacity:0.8;fill:url(#linear-gradient-11);}.cls-29{opacity:0.3;}</style><linearGradient id="linear-gradient" x1="45.2" y1="12.22" x2="45.2" y2="4.22" gradientTransform="matrix(0.93, -0.36, 0.36, 0.93, -14.42, 22.03)" gradientUnits="userSpaceOnUse"><stop offset="0" stop-color="#ff4a3f"/><stop offset="1" stop-color="#a80707"/></linearGradient><linearGradient id="linear-gradient-2" x1="16.08" y1="33.39" x2="25.73" y2="33.39" gradientTransform="matrix(0.93, -0.36, 0.36, 0.93, -14.42, 22.03)" gradientUnits="userSpaceOnUse"><stop offset="0" stop-color="#870808"/><stop offset="1" stop-color="#a80707"/></linearGradient><linearGradient id="linear-gradient-3" x1="48.78" y1="60.62" x2="48.78" y2="11.22" gradientTransform="translate(-4.75 2.05)" xlink:href="#linear-gradient-2"/><linearGradient id="linear-gradient-4" x1="20.08" y1="9.94" x2="21.91" y2="7.76" gradientTransform="matrix(0.93, -0.36, 0.36, 0.93, -14.42, 22.03)" gradientUnits="userSpaceOnUse"><stop offset="0" stop-color="#a80707" stop-opacity="0"/><stop offset="0.04" stop-color="#ab0909" stop-opacity="0.03"/><stop offset="0.11" stop-color="#b20f0d" stop-opacity="0.11"/><stop offset="0.2" stop-color="#be1815" stop-opacity="0.25"/><stop offset="0.29" stop-color="#ce2520" stop-opacity="0.44"/><stop offset="0.4" stop-color="#e4352d" stop-opacity="0.69"/><stop offset="0.51" stop-color="#fd493e" stop-opacity="0.98"/><stop offset="0.52" stop-color="#ff4a3f"/><stop offset="0.54" stop-color="#f64339" stop-opacity="0.9"/><stop offset="0.59" stop-color="#e4352e" stop-opacity="0.69"/><stop offset="0.64" stop-color="#d42923" stop-opacity="0.51"/><stop offset="0.7" stop-color="#c71e1b" stop-opacity="0.35"/><stop offset="0.75" stop-color="#bb1614" stop-opacity="0.22"/><stop offset="0.81" stop-color="#b30f0e" stop-opacity="0.13"/><stop offset="0.87" stop-color="#ad0b0a" stop-opacity="0.06"/><stop offset="0.93" stop-color="#a90808" stop-opacity="0.01"/><stop offset="1" stop-color="#a80707" stop-opacity="0"/></linearGradient><linearGradient id="linear-gradient-5" x1="62.35" y1="44.18" x2="47.53" y2="35.62" gradientUnits="userSpaceOnUse"><stop offset="0" stop-color="#ff362a"/><stop offset="0.32" stop-color="#ff362a" stop-opacity="0.74"/><stop offset="0.64" stop-color="#ff362a" stop-opacity="0.5"/><stop offset="0.88" stop-color="#ff362a" stop-opacity="0.36"/><stop offset="1" stop-color="#ff362a" stop-opacity="0.3"/></linearGradient><radialGradient id="radial-gradient" cx="35.95" cy="22.92" r="4.82" gradientTransform="matrix(0.93, -0.36, 0.36, 0.93, -17.4, 18.79)" gradientUnits="userSpaceOnUse"><stop offset="0" stop-color="#f1f2f2"/><stop offset="0.16" stop-color="#edeeee"/><stop offset="0.34" stop-color="#dfe0e1"/><stop offset="0.52" stop-color="#cacbcb"/><stop offset="0.71" stop-color="#abacae"/><stop offset="0.9" stop-color="#848588"/><stop offset="1" stop-color="#6d6e71"/></radialGradient><radialGradient id="radial-gradient-2" cx="61.7" cy="22.92" r="4.82" xlink:href="#radial-gradient"/><radialGradient id="radial-gradient-3" cx="61.7" cy="48.58" r="4.82" xlink:href="#radial-gradient"/><radialGradient id="radial-gradient-4" cx="35.95" cy="48.58" r="4.82" xlink:href="#radial-gradient"/><radialGradient id="radial-gradient-5" cx="48.78" cy="35.92" r="4.82" xlink:href="#radial-gradient"/><radialGradient id="radial-gradient-6" cx="18.14" cy="18.94" r="3.6" gradientTransform="translate(-8.82 -42.58) scale(1 4)" gradientUnits="userSpaceOnUse"><stop offset="0" stop-color="#f1f2f2"/><stop offset="0.08" stop-color="#cecfcf"/><stop offset="0.17" stop-color="#b0b1b2"/><stop offset="0.27" stop-color="#97989a"/><stop offset="0.38" stop-color="#848588"/><stop offset="0.51" stop-color="#77787b"/><stop offset="0.68" stop-color="#6f7073"/><stop offset="1" stop-color="#6d6e71"/></radialGradient><radialGradient id="radial-gradient-7" cx="21.25" cy="44.7" r="3.6" gradientTransform="translate(0.26 -122.74) scale(1 4)" gradientUnits="userSpaceOnUse"><stop offset="0" stop-color="#f1f2f2"/><stop offset="0.08" stop-color="#cfd0d1"/><stop offset="0.17" stop-color="#b1b2b3"/><stop offset="0.28" stop-color="#98999b"/><stop offset="0.39" stop-color="#858688"/><stop offset="0.52" stop-color="#77787b"/><stop offset="0.69" stop-color="#6f7073"/><stop offset="1" stop-color="#6d6e71"/></radialGradient><radialGradient id="radial-gradient-8" cx="29.76" cy="5.72" r="3.64" gradientTransform="translate(-14.36 15.51) scale(1 0.2)" gradientUnits="userSpaceOnUse"><stop offset="0" stop-color="#f1f2f2"/><stop offset="0.26" stop-color="#d8dada"/><stop offset="0.79" stop-color="#9a9c9e"/><stop offset="1" stop-color="#808285"/></radialGradient><radialGradient id="radial-gradient-9" cx="44.7" cy="7.42" r="3.64" gradientTransform="translate(-14.75 11.37) scale(1 0.2)" gradientUnits="userSpaceOnUse"><stop offset="0" stop-color="#f1f2f2"/><stop offset="0.19" stop-color="#e2e3e3"/><stop offset="0.55" stop-color="#b9bbbc"/><stop offset="1" stop-color="#808285"/></radialGradient><radialGradient id="radial-gradient-10" cx="59.45" cy="9.7" r="3.64" gradientTransform="translate(-14.92 7.72) scale(1 0.2)" gradientUnits="userSpaceOnUse"><stop offset="0" stop-color="#f1f2f2"/><stop offset="0.59" stop-color="#abadaf"/><stop offset="1" stop-color="#808285"/></radialGradient><linearGradient id="linear-gradient-6" x1="21.86" y1="17.79" x2="51.98" y2="35.18" gradientTransform="matrix(0.93, -0.36, 0.36, 0.93, -14.42, 22.03)" gradientUnits="userSpaceOnUse"><stop offset="0" stop-color="#f1f2f2"/><stop offset="0.13" stop-color="#e9dada" stop-opacity="0.94"/><stop offset="0.41" stop-color="#d69c9c" stop-opacity="0.78"/><stop offset="0.81" stop-color="#b73939" stop-opacity="0.53"/><stop offset="1" stop-color="#a80707" stop-opacity="0.4"/></linearGradient><linearGradient id="linear-gradient-7" x1="16.48" y1="31.65" x2="22.64" y2="31.65" xlink:href="#linear-gradient-6"/><linearGradient id="linear-gradient-8" x1="19.56" y1="7.78" x2="34.87" y2="7.78" gradientTransform="matrix(0.93, -0.36, 0.36, 0.93, -14.42, 22.03)" gradientUnits="userSpaceOnUse"><stop offset="0" stop-color="#ff362a"/><stop offset="0.19" stop-color="#ff3023" stop-opacity="0.9"/><stop offset="0.6" stop-color="#ff1f12" stop-opacity="0.66"/><stop offset="1" stop-color="#ff0e00" stop-opacity="0.4"/></linearGradient><linearGradient id="linear-gradient-9" x1="34.66" y1="6.56" x2="49.81" y2="6.56" gradientTransform="matrix(0.93, -0.36, 0.36, 0.93, -14.42, 22.03)" gradientUnits="userSpaceOnUse"><stop offset="0" stop-color="#ff362a"/><stop offset="0.17" stop-color="#ff362a" stop-opacity="0.9"/><stop offset="0.53" stop-color="#ff362a" stop-opacity="0.66"/><stop offset="1" stop-color="#ff362a" stop-opacity="0.3"/></linearGradient><linearGradient id="linear-gradient-10" x1="32.94" y1="78.75" x2="122.02" y2="78.75" gradientUnits="userSpaceOnUse"><stop offset="0" stop-color="#1b75bc"/><stop offset="1" stop-color="#2b3f7c"/></linearGradient><radialGradient id="radial-gradient-11" cx="80.46" cy="82" r="24.62" gradientTransform="translate(-31.59 83.46) rotate(-45) scale(1 0.9)" gradientUnits="userSpaceOnUse"><stop offset="0" stop-color="#fff"/><stop offset="1" stop-color="#d1d3d4"/></radialGradient><linearGradient id="linear-gradient-11" x1="42.45" y1="96.25" x2="47.02" y2="96.25" gradientTransform="translate(16.27 -6) rotate(9.37)" gradientUnits="userSpaceOnUse"><stop offset="0" stop-color="#f1f2f2"/><stop offset="1" stop-color="#e6e7e8"/></linearGradient></defs><title>Betgames Icon</title><g id="Dice"><rect class="cls-1" x="9.34" y="9.62" width="49.4" height="49.4" rx="2.99" ry="2.99" transform="translate(-13.05 11.32) rotate(-21.12)"/><path class="cls-2" d="M57.39,7.4s-7.31-2.61-9.45-3.68c-1.08-.55-1.07-.83-4.19.37C41.33,5,8.38,17.79,5.12,19c-2.28.86.12,1.54,1,1.89a41.55,41.55,0,0,0,5.58,1.94c3,.65,4.4-.56,6.44-1.35,2.21-.85,16.81-6.43,23.44-9C54.09,7.54,57.39,7.4,57.39,7.4Z" transform="translate(-2.98 -3.25)"/><path class="cls-3" d="M3.17,23c.92,2.41,14.47,37.42,15.41,39.9s2.4,2.52,5.34,3.38c2.76.81,7.25,2.43,7.25,2.43s-2-.33-4.2-6.31S14.49,30.19,13.47,27.41s-4.07-3.22-6.19-4S2.81,22,3.17,23Z" transform="translate(-2.98 -3.25)"/><rect class="cls-4" x="19.32" y="13.27" width="49.4" height="49.4" rx="3.84" ry="3.84" transform="translate(-13.7 15.16) rotate(-21.12)"/><path class="cls-5" d="M13.61,23.1c-2,.35-8.24-2.33-9-2.71s-1.14-.19-1.38.54S3,22.11,4,22.31a46.15,46.15,0,0,1,4.78,1.42c3.68,1.21,4.17,2.45,4.24,1.95C13.22,24.19,14.52,23,13.61,23.1Z" transform="translate(-2.98 -3.25)"/><path class="cls-6" d="M54.79,24.36c-3.09-1.12,1.34,10.73-1.74,15s-9.36,7.41-7.88,10.23,15.54-.38,17.62-6.35S59.61,26.12,54.79,24.36Z" transform="translate(-2.98 -3.25)"/><circle class="cls-7" cx="24.4" cy="27.21" r="4.82"/><circle class="cls-8" cx="48.42" cy="17.93" r="4.82"/><circle class="cls-9" cx="57.67" cy="41.87" r="4.82"/><circle class="cls-10" cx="33.65" cy="51.15" r="4.82"/><circle class="cls-11" cx="41.05" cy="34.72" r="4.82"/><ellipse class="cls-12" cx="9.32" cy="33.16" rx="0.57" ry="5.06" transform="translate(-14.3 2.34) rotate(-21.12)"/><ellipse class="cls-13" cx="21.51" cy="56.08" rx="0.57" ry="5.06" transform="translate(-21.74 8.27) rotate(-21.12)"/><ellipse class="cls-14" cx="15.4" cy="16.65" rx="5.11" ry="0.57" transform="translate(-7.94 3.42) rotate(-21.12)"/><ellipse class="cls-15" cx="29.95" cy="12.85" rx="5.11" ry="0.57" transform="translate(-5.59 8.4) rotate(-21.12)"/><ellipse class="cls-16" cx="44.53" cy="9.66" rx="5.11" ry="0.57" transform="translate(-3.47 13.44) rotate(-21.12)"/><path class="cls-17" d="M51,8.79,18.68,21.28c-4.64,1.8-6.59,2.54-4.8,7.08C15.54,32.54,26.44,61,26.44,61s-1.55-12.27,4.77-27.84S51,8.79,51,8.79Z" transform="translate(-2.98 -3.25)"/><path class="cls-18" d="M4.44,25.14C8,33.69,17.27,57.24,19,62.48c.74,2.23,6.93,3.44,6.93,3.44A17.25,17.25,0,0,1,21,59.76a143,143,0,0,1-7.59-17.49C12,38.22,9.78,32.24,8.76,28c-.6-2.5,3.13-2.36,2.25-2.64C7.74,24.3,2.72,20.94,4.44,25.14Z" transform="translate(-2.98 -3.25)"/><path class="cls-19" d="M5.68,19.8c2.47,1,5.52,3,8.91,2a53.93,53.93,0,0,0,7.22-2.78s-6.75,1.75-9.27,1.38S5.68,19.8,5.68,19.8Z" transform="translate(-2.98 -3.25)"/><path class="cls-20" d="M24.11,16c-1-.94.38-2.83,4-4.23a22.91,22.91,0,0,0,5.7-3.08S22.36,13,21,13.89s2.12-.2.07,1.79S24.11,16,24.11,16Z" transform="translate(-2.98 -3.25)"/></g><g id="Ball"><circle class="cls-21" cx="77.48" cy="78.75" r="44.54"/><circle class="cls-22" cx="77.48" cy="78.75" r="24.62"/><text class="cls-23" transform="translate(59.45 88.36) rotate(25)">8</text><path class="cls-24" d="M39.43,72.22c-1.38,5.65-1.68,15,.91,22.44s5.19,11.62,10.08,16-3.82-6.19-7.17-20C40.07,77.65,40.54,67.65,39.43,72.22Z" transform="translate(-2.98 -3.25)"/><ellipse class="cls-25" cx="77.48" cy="59.08" rx="35.06" ry="24.04"/><ellipse class="cls-26" cx="44.73" cy="82.41" rx="4.07" ry="3.45" transform="translate(-48.05 106.15) rotate(-78.23)"/><ellipse class="cls-27" cx="44.73" cy="96.25" rx="2.27" ry="2.68" transform="translate(-18.05 5.32) rotate(-9.37)"/><path class="cls-28" d="M122.19,76.31c.91,5.68,1.2,10.06-1.14,10.06s-2.37-4-3.34-9.32a88.24,88.24,0,0,0-3.18-12.57c-2.23-7.1-7.6-14.6-5.8-13.53,2.54,1.51,6.91,6.83,9.25,11.31C120.2,66.5,121.86,74.28,122.19,76.31Z" transform="translate(-2.98 -3.25)"/><path class="cls-29" d="M107.31,116.49c5.09-3.36,11.6-12.1,14-19s-3.77,7.06-13.53,14.75c-9.43,7.42-15.08,9.19-21,10.68-7.83,2-20.75-1-17.78.31,5.37,2.37,10.27,2.75,16.26,2.24C97.13,124.43,103.26,119.16,107.31,116.49Z" transform="translate(-2.98 -3.25)"/></g></svg>