<svg xmlns="http://www.w3.org/2000/svg" xmlns:xlink="http://www.w3.org/1999/xlink" viewBox="0 0 533.6 383.9"><defs><style>.a{fill:#fcf8af;}.b{fill:#f9eb64;}.c{fill:#6b6b6b;}.d{fill:#f5dc63;}.e{fill:#e8b44e;}.f{fill:#fdf9d6;}.g{clip-path:url(#a);}.h{clip-path:url(#b);}.i{fill:#fbf58f;}</style><clipPath id="a" transform="translate(0 14.4)"><ellipse class="a" cx="288.2" cy="148.5" rx="72.5" ry="144.5" transform="translate(-7 14.5) rotate(-2.9)"/></clipPath><clipPath id="b" transform="translate(0 14.4)"><ellipse class="b" cx="290.8" cy="148.4" rx="59.7" ry="122.9" transform="translate(-7 14.7) rotate(-2.9)"/></clipPath></defs><title>InstantGames</title><path class="c" d="M380.8,117.5c-20.8,8.8-41.3,18.8-61.8,28.7.2-.4,0-.9-.6-.7s.2-.5,0-.7.6-.6,1.1-1.3c-4.8,1.6-2.4,1.8-6.5,3.4l-6.3,2.5-18.8,9.9-3.1.6c2.7-1.4,14.5-8.1,14.5-8.1,3.8-2.1,6.6-4.1,9.6-6.1l10.3-4.9c8.3-4,16.6-7.6,24.3-12.9,1-.7.2-2.8-1-2.5a105.6,105.6,0,0,0-15.8,6.2l-.2-.3,1.4-.7a.7.7,0,0,0-.5-1.2A243.9,243.9,0,0,0,304,140l-2.1.9a5.2,5.2,0,0,0-.6-1.3h.2l3.2-1.5c19.2-9.1,38.9-17.6,57.7-27.8.7-.3.2-1.5-.5-1.2-15.2,6.2-30,13.4-44.9,20.6.2-.3-.1-.8-.5-.6-6.5,2.7-13,5.7-19.4,8.7l-2.3,1a25,25,0,0,0-5.3,1.1c-.1-.2-.7,0-2.5.9,1.8-1.3,5.2-2,4.1-2.6a42.4,42.4,0,0,1-5.2,2l.9-.7a1.8,1.8,0,0,0,.5-.7l1.6-.9c6-2.8,12-5.7,17.8-9.1.7-.4.2-1.6-.5-1.3a199.6,199.6,0,0,0-19.1,8.2,2.1,2.1,0,0,0-2.2-1l-.7.2h.4a14.9,14.9,0,0,0,4.3-1.9c1.2-1,12.2-5,13.6-6.2s2.9-2.6-1.9-.9a8.3,8.3,0,0,0-3.4,2.1c-1.4,1.2-2.5.1-4.8,1.7a8.9,8.9,0,0,1-3.5,1.1c-.7.1-.6-.3-.3-.8s2.2-1.5,3-1.5,5.7-2,7.3-3-4.7.2-7.1,1.7-9.1,4.3-13.6,6.5c-.4,0-.9.4-1.2.3s-4.8,1-3.3.1c18.4-10.3,3.4-1.2,19.7-10-1.2.7-3,1.7-2.1,1.6s7.9-3.1,9.8-3.7,5.1-2.4,5.4-3.3-.6-.4-1.1-.1a64.1,64.1,0,0,1-9.3,4.1c4.6-2.6,8.3-4.3,1.9-1.5.2-.2.4-.4.4-.6a2.2,2.2,0,0,0-1.9.7c-.4.4-.1.4.4.3L291,124c.6-.6.1-1-1.8.2s-1.4,1.1-.8.9c-3.7,1.5-1.9,1-6.5,2.7.5-1.1-4.9,1.5-6.3,2.2s-1.4,0-.9-.3c5-3.1,2.9-2.7-2.5-1-.8.3-1-.3,0-.9,8-4.4,8.9-3.7,1.1-2.4,3.1-2.6,6-2.6,10.1-5-1.1-.5-14.5,5.1-15.8,5.8a10.2,10.2,0,0,1-4.6.6c-.3-.1-1,.3-1.2.6-2.3,3.2-5.8,2.9-11.4,5.5-2.8,1.3-2.8,1.4-2.9,1.6h-.2l-2.5.9c-.1-.3-.6-.4-.2-.6,2.4-1,1.6-.5,2.3-.7a.2.2,0,0,0,.1-.4c-.5-.2-3.2,1.4-3.9.7s.3-.4.7-.7l.3-.2c3.1-1,3.3-2,2.4-1.8s-.8.8-1.6.7a16.7,16.7,0,0,0-2.9,1c3.8-1.8,7.8-3.5,11.7-5.8-1.2-.3-3.1,1.1-5.1,1.7-3.6,1.1-4.7,2.4-7.7,3s-7.9,4.1-9.9,4h-2.3c-.6,0-.3-.5-1-.5s-.7-.2-.6-.4.5-.7.4-.8-1.5.4-1.9,1.4-.2.2-.2.1a.7.7,0,0,0-.8-.3,36.7,36.7,0,0,0,4.8-2.6c1.2-.7,2.3-1.8,3.6-2.4a19.3,19.3,0,0,1,4.1-1.2c1-.3-.2-3.5-1.1-2.9a29,29,0,0,1-3.6,2.5c-1.3.5-2.8.7-4.1,1.1s-5.2,2.3-7.8,3.4-4.2,1.8-6.3,2.6l24.3-12c.2-.1-.1-.9-.3-.8l-19.7,8.9c0-.4-.3-1-.6-.9l-14,6.2a3.6,3.6,0,0,0-1.5-3.2c4.2-2.2,8.3-4.4,12.5-6.3l7.8-3.6c2.6-1.3,5.2-4.6,8.1-5,.8-.1.1-2.1-.6-1.6-2.3,2.1-6.2,1.9-8.9,3.1l-2.3,1.1c-.6-1.1-1.6-1.9-2.4-1a13.3,13.3,0,0,1-1.9,1.4l-7,3.1,4.6-2.2c.5-.2-.1-1.7-.6-1.5-17.7,8.3-35.8,15.6-53.2,24.6l-13.4,6.3c-5.6,2.6-11.4,4.7-16.6,8.2a.4.4,0,0,0-.1.5c-5.4,2.6-10.8,5.1-16,8s-8.4,4-12.5,6.3a95.6,95.6,0,0,0-11,5.7A236.8,236.8,0,0,0,67,192.9c-.5.2,0,1.4.4,1.3,12.2-4.5,23.8-10.8,35.6-16.4l8.7-4.2c0,.2.1.5.1.7h-.2c-5.2,2.1-10.3,4.7-15.4,7.2s-10.2,4.5-14.7,8.3c-.6.5.2,2.6,1,2.5a38.7,38.7,0,0,0,9.9-3.4c.1.8.5,1.6,1.1,1.6,2.5,0,4.7-1.6,7-2.7l2.7-1.4c.1.2.2.2.4.2a31.5,31.5,0,0,0,6.3-2.7l6.1-2.8c.1.6.5,1.3,1,1.1l3.4-1.6,2.5-.3a1.1,1.1,0,0,0,.1,1.1l-7.4,3.7-1.3.3a22.6,22.6,0,0,0-8.6,5.8c-.7.8-1.6,1.5-2.4,2.3-11.6,5.5-23.8,11.5-26.8,12.8-13.4,5.7-18,9.9-27.7,14.3s-15.6,8.7-19.1,10.6c2,.1,9.2-3.5,11.1-3.8a18.7,18.7,0,0,0-3.9,3.4l9.3-3.9c-2.7,1.4-4.5,2.3-6.1,3.3-6,3.6-5.5,4.2-13.9,8.5-2.4,1.3-6.6,3.6-7.6,4.8,1.8.3,4.5-2.1,8.1-3.5,1.2-.4,2.4-.4.7.5-6.7,3.8-2.3,2.7-9.3,7-3.3,2-6.4,3.7-8.4,5.5s2.1.2,4.3-.8c4-1.8,5.8-3.8,9.7-5,2-.6-.1,1.5,2.6,1s-2.3,2.2-.3,2.4-6.6,4.6-9.8,6.5-6.2,3.5-4.8,3.5c14.1-6.5,23.7-11.4,23.7-11.4,19.2-7.1,8.8-6.3,30.3-13.7l-6.2,3.3c-4.6,2.2-6.6,5.5-10.4,5.6-2.2,0-13.2,6.7-16.5,8.1s1.3.1,4.9-1c1,1.1-9.6,7.1-13.7,9.6-1.5.9-2.6,2.3-.7,1.4s10.8-5.3,11.9-5.1c-3,3.4,14.5-5.6,21.2-8.3-2.4,2.1-5.7,3.5-4.8,4.3s-.7.6-1.4,1.4c5.5-1.9,2.9-2,7.6-3.9,2.4-1,4.9-1.9,7.3-3l25-12.9a3.7,3.7,0,0,1,1.5-.6.9.9,0,0,0,.1.5l-.6.5-17.5,9.6c-7.7,4.3-12,7.9-20.2,11.8-4.1,1.9-6.9,4.2-11,6.9,2.7,1.5,8-3,5.1.4-.8,1,2.3-.1,5.8-1.5l-7.9,3.8-14.4,6.7L27.1,275,.3,288c-.6.3-.3,1.1.3.8l10.1-4.6c-.1.6.6,1.2,1.5.6,5.6-3.6,13.6-5.3,19.7-8.1l9.1-4.4c-.1.6.3,1.1,1.1.8l20.4-9.4c-6.3,3.3-12.7,6.7-19.2,9.7s-11.6,5.4-17.2,8.4c-2.8,1.6-5.5,3.4-8.4,4.8s-5.9,2.3-8.9,3.4-1.1,4.1,1.1,2.9,5.5-3.3,8.4-4.7,6-2.2,8.9-3.4c5.9-2.4,11.7-5.3,17.4-8l8.8-4a1.2,1.2,0,0,0,1.5.3l1.5-.9a3.8,3.8,0,0,0,1.4-1.1v-.2l10.4-4.5a18.8,18.8,0,0,1-2.3,1.6c-2.3,1.5-1,4.9,1.6,4.1h.2l-12.8,6.1c-1.1.6-.5,2,.6,1.5,16.6-7.9,33.4-15.5,50.1-23.2-.1,0-.3.1-.3.2s4,.1,6.1-1.3,7.8-3.7,11.7-5.6c.4,0,.8-.3,1.1-.2h1.6a1.9,1.9,0,0,0,.2.7c-13.9,8-2.2.5-15.9,8,1.1-.6,2.6-1.5,1.8-1.4s-6.8,2.6-8.4,3-4.4,2.2-4.7,3,.6.5,1,.2a43.4,43.4,0,0,1,8-3.5c-3.9,2.3-7.1,3.7-1.6,1.4a1,1,0,0,0-.4.5,1.9,1.9,0,0,0,1.8-.6c.3-.3,0-.4-.4-.3l5.1-2.2c-.6.5,0,1,1.6-.1s1.2-1,.6-.8c3.2-1.3,1.6-.9,5.6-2.4-.3,1.1,4.3-1.1,5.5-1.7s1.2.1.8.3c-4.2,2.8-2.4,2.5,2.3,1.1.7-.2.9.4,0,.9-6.9,3.8-7.7,3.1-.8,2.3-2.7,2.4-5.2,2.3-8.7,4.4.9.5,12.5-4.2,13.6-4.8a6.5,6.5,0,0,1,4-.4,1.3,1.3,0,0,0,1.1-.5c1.9-3,5-2.5,9.9-4.8,2.4-1.1,2.3-1.2,2.4-1.4s.1,0,.2-.1l2.2-.8c.1.4.6.5.2.7-2.1.8-1.5.4-2,.5a.2.2,0,0,0-.1.4c.4.2,2.8-1.1,3.4-.4s-.3.4-.6.6l-.2.2c-2.7.8-2.9,1.8-2,1.6s.6-.7,1.3-.6a21.6,21.6,0,0,0,2.6-.8,86.1,86.1,0,0,0-10.1,5c1,.4,2.6-.9,4.4-1.4s4-2.1,6.7-2.5,6.8-3.5,8.5-3.4h2.1c.5,0,.3.5.9.5s.6.3.5.4-.4.7-.3.8,1.3-.3,1.6-1.3h.2c.2.4.5.4.9.3s.3.6,1.2.2c3.1-1.2,2.4-1.3,1.1-3s3.6-2.6,6.2-3.6a10.1,10.1,0,0,0,2.3-.4c6.7-3.2,9.8-3.7,11-3.7l-1.1.5c-.1.1.2.9.3.8l4.3-1.8.4-.2,6.9-2.9a1.5,1.5,0,0,0,.4.9l8.2-3.5a5.9,5.9,0,0,0,1.4,3.2,71.8,71.8,0,0,1-7.2,3.9l-4.5,2c-1.5.8-2.8,3.4-4.6,3.3s.3,2,.6,1.6,3.8-.7,5.3-1.4l1.4-.6c.6,1.1,1.3,2,1.7,1.4a3.6,3.6,0,0,1,1-1.1l4.1-1.7-2.6,1.3c-.3.1.2,1.6.5,1.5,10.3-4.8,21-8.6,31.1-14.1l7.8-3.7c3.2-1.5,6.7-2.5,9.6-4.9v-.5a88.6,88.6,0,0,0,9.2-4.7c2.5-1.2,4.9-2.4,7.3-3.8a32.3,32.3,0,0,0,6.2-3.6,76.5,76.5,0,0,0,12.7-6.6c.3-.2-.2-1.4-.4-1.3-7.3,2.1-13.9,6.1-20.8,9.4l-5.1,2.4c0-.2-.1-.4-.1-.7a93.4,93.4,0,0,0,9.1-4.1c2.9-1.5,6-2.5,8.4-5.3.3-.4-.6-2.5-1-2.6a14.3,14.3,0,0,0-5.9,1.5c-.2-.7-.6-1.5-1-1.6s-2.8.7-4.1,1.4l-.8.3a15.3,15.3,0,0,0,1.8-1.8l2-2.1,23.1-11c11.6-4.9,15.5-8.7,23.9-12.5s13.4-7.7,16.3-9.3c-1.7-.2-7.9,2.9-9.6,3.1a14.1,14.1,0,0,0,3.3-3.1l-8,3.3,5.3-2.9c5.1-3.2,4.6-3.9,11.8-7.6,2-1.1,5.7-3.1,6.5-4.2-1.6-.4-3.8,1.8-7,2.9-1,.4-2.1.3-.6-.5,5.7-3.3,1.9-2.5,7.9-6.3a52.3,52.3,0,0,0,7.2-5c1-1-1.9-.3-3.9.6s-4.8,3.4-8.3,4.4c-1.7.5,0-1.5-2.3-1.1s1.9-2.1.2-2.4.8-1.2,2.9-2.6,7.1-3.8,10.5-6a1.3,1.3,0,0,0-.9-2.5,194.6,194.6,0,0,0-21.7,9l-.2-.3,1.9-1a.7.7,0,0,0,.3-1c2.7-2,6.8-4.4,8.9-5.7s1.7-1.5,1.3-1.6c12.6-5.9,25.2-12,37.6-18.4C382.2,118.2,381.8,117.1,380.8,117.5ZM59.1,218.1l-1.3.9C54.7,220.6,55.2,219.5,59.1,218.1Zm-4.4,4.1a82.2,82.2,0,0,1,8.8-4.1A44.9,44.9,0,0,1,54.7,222.2Zm85.6,5.2c-.9.2-1.1,0-1-.3a1.3,1.3,0,0,0,.5-.6l1.8-.8c1.7-.5,4.2-1.2,3.6-.4l-.5.2Zm10.2-5.4c0-.1.1-.2.1-.3l16.2-7.3Zm56.8-76.8c4.5-2.2,8.8-5,13.3-7.3l1,1.2c.5.5-4.2,2.8-7.2,4l-2.7.6c-3.5,1.6-6,2.6-8,3.3ZM87.8,203.5a2.9,2.9,0,0,1-1.5.5C87.5,203.1,88,203,87.8,203.5Zm-8.2,3.8c1.4.1-2.7,2.4-4,1.9A6.4,6.4,0,0,1,79.6,207.3Zm9.1,51H86.8l12-5.5a2.7,2.7,0,0,0,2.5,2.8l-13.6,6.6a10.7,10.7,0,0,0,1.9-1.8A1.3,1.3,0,0,0,88.7,258.3Zm22.8-4.3a9.7,9.7,0,0,0-2,.6l4.7-2.2v.3C113.3,253.3,112.2,254.1,111.5,254Zm176.7-62.3a1.9,1.9,0,0,1,1.3-.4C288.5,192.1,288,192.2,288.2,191.7Zm7.1-3.3c-1.3-.1,2.3-2.1,3.4-1.6A5.1,5.1,0,0,1,295.3,188.4Zm17.6-9.5,1.1-.7C316.6,176.8,316.3,177.8,312.9,178.9Zm-3.9-.1a26.8,26.8,0,0,1,7.6-3.6A63.4,63.4,0,0,1,309,178.8Z" transform="translate(0 14.4)"/><path class="d" d="M298.1,295l34.3-1.7c41.4-2,71.7-69.4,67.7-150.4S359.2-2,317.8,0L283.5,1.8Z" transform="translate(0 14.4)"/><path class="e" d="M365.4,275.9c19.8-21.5,33.1-61.1,34.9-107.6l-92.6,4.6L313,278.5Z" transform="translate(0 14.4)"/><path class="b" d="M392,88.5c-5.8-22.5-14.4-42.1-24.7-57.1l-66.5,3.3,2.9,58.2Z" transform="translate(0 14.4)"/><ellipse class="f" cx="290.8" cy="148.4" rx="75.1" ry="146.8" transform="translate(-7 29.1) rotate(-2.9)"/><ellipse class="a" cx="288.2" cy="148.5" rx="72.5" ry="144.5" transform="translate(-7 29) rotate(-2.9)"/><g class="g"><polygon class="f" points="114.9 365.8 141.9 383.9 533.6 60.8 506.6 42.7 114.9 365.8"/><polygon class="f" points="51.1 323.1 105.6 359.6 497.3 36.5 442.8 0 51.1 323.1"/></g><ellipse class="b" cx="290.8" cy="148.4" rx="59.7" ry="122.9" transform="translate(-7 29.1) rotate(-2.9)"/><g class="h"><polygon class="i" points="132.2 359.9 158 377.2 526.5 73.1 500.8 55.9 132.2 359.9"/><polygon class="i" points="71.5 319.2 123.4 354 491.9 50 440.1 15.2 71.5 319.2"/></g><path class="d" d="M240.1,150.9C236.8,86.2,258.5,32,289.2,25.7a33.8,33.8,0,0,0-4.5-.1c-32.9,1.7-56.9,58-53.5,125.8S264,272.8,297,271.2a33.2,33.2,0,0,0,4.4-.6C270.3,267.5,243.3,215.7,240.1,150.9Z" transform="translate(0 14.4)"/></svg>