<?xml version="1.0" encoding="utf-8"?>
<svg id="Layer_1" data-name="Layer 1" viewBox="0 0 500 500" xmlns="http://www.w3.org/2000/svg" xmlns:xlink="http://www.w3.org/1999/xlink">
  <defs>
    <style>.cls-1{fill:url(#radial-gradient);}.cls-2{fill:url(#radial-gradient-2);}.cls-3{fill:#fff;}.cls-4{fill:url(#linear-gradient);}.cls-5{fill:url(#linear-gradient-2);}.cls-6{fill:url(#linear-gradient-3);}.cls-7{fill:url(#linear-gradient-4);}.cls-8{fill:url(#linear-gradient-5);}.cls-9{fill:url(#linear-gradient-6);}.cls-10{fill:url(#linear-gradient-7);}.cls-11{fill:url(#radial-gradient-3);}.cls-12{fill:url(#radial-gradient-4);}.cls-13{fill:url(#radial-gradient-5);}.cls-14{fill:url(#radial-gradient-6);}.cls-15{fill:url(#radial-gradient-7);}.cls-16{fill:url(#radial-gradient-8);}.cls-17{fill:url(#radial-gradient-9);}.cls-18{fill:url(#radial-gradient-10);}.cls-19{fill:url(#linear-gradient-8);}.cls-20{fill:url(#linear-gradient-9);}.cls-21{fill:url(#linear-gradient-10);}.cls-22{fill:url(#linear-gradient-11);}.cls-23{fill:url(#linear-gradient-12);}.cls-24{fill:url(#linear-gradient-13);}.cls-25{fill:url(#linear-gradient-14);}.cls-26{fill:#010101;}</style>
    <radialGradient id="radial-gradient" cx="230.44" cy="393.58" r="205.82" gradientTransform="matrix(1, 0, 0, -1, 0, 502)" gradientUnits="userSpaceOnUse">
      <stop offset="0" stop-color="#fff"/>
      <stop offset="0.43" stop-color="#d6d7e1"/>
      <stop offset="0.5" stop-color="#c7c8d1"/>
      <stop offset="0.62" stop-color="#a3a3ac"/>
      <stop offset="0.65" stop-color="#9a9aa2"/>
      <stop offset="0.89" stop-color="#d2d2d2"/>
    </radialGradient>
    <radialGradient id="radial-gradient-2" cx="626.87" cy="35.14" r="203.75" gradientTransform="matrix(1, 0, 0, -1, -397.71, 144.27)" gradientUnits="userSpaceOnUse">
      <stop offset="0" stop-color="#e6e6e5"/>
      <stop offset="0.43" stop-color="#bdbdc7"/>
      <stop offset="0.5" stop-color="#b0b0b8"/>
      <stop offset="0.62" stop-color="#8a8a93"/>
      <stop offset="0.65" stop-color="#82828a"/>
      <stop offset="0.89" stop-color="#b9b9b9"/>
    </radialGradient>
    <linearGradient id="linear-gradient" x1="635.08" y1="-17.92" x2="633.34" y2="-112.92" gradientTransform="matrix(1, 0, 0, -1, -397.71, 144.27)" gradientUnits="userSpaceOnUse">
      <stop offset="0" stop-color="#fff"/>
      <stop offset="0.05" stop-color="#fafbfc"/>
      <stop offset="0.7" stop-color="#b6b5bb"/>
      <stop offset="1" stop-color="#9a9aa2"/>
    </linearGradient>
    <linearGradient id="linear-gradient-2" x1="574.15" y1="26.12" x2="516.8" y2="-12.56" xlink:href="#linear-gradient"/>
    <linearGradient id="linear-gradient-3" x1="636.11" y1="81.05" x2="681.88" y2="116.39" xlink:href="#linear-gradient"/>
    <linearGradient id="linear-gradient-4" x1="588.82" y1="65.71" x2="567.08" y2="94.84" xlink:href="#linear-gradient"/>
    <linearGradient id="linear-gradient-5" x1="643.28" y1="-104.32" x2="643.28" y2="-126.54" xlink:href="#linear-gradient"/>
    <linearGradient id="linear-gradient-6" x1="749.69" y1="-18.71" x2="765.86" y2="-21.32" xlink:href="#linear-gradient"/>
    <linearGradient id="linear-gradient-7" x1="700.65" y1="112.17" x2="717.23" y2="130.12" xlink:href="#linear-gradient"/>
    <radialGradient id="radial-gradient-3" cx="622.37" cy="34.42" r="194.14" gradientTransform="matrix(1, 0, 0, -1, -397.71, 144.27)" gradientUnits="userSpaceOnUse">
      <stop offset="0.09" stop-color="#b2bfc6"/>
      <stop offset="0.32" stop-color="#949a9e"/>
      <stop offset="0.46" stop-color="#85888a"/>
      <stop offset="0.65" stop-color="#6f6969"/>
      <stop offset="0.88" stop-color="#9aa5b8"/>
    </radialGradient>
    <radialGradient id="radial-gradient-4" cx="626.31" cy="36.11" r="192.12" gradientTransform="matrix(1, 0, 0, -1, -397.71, 144.27)" gradientUnits="userSpaceOnUse">
      <stop offset="0" stop-color="#3c4a52"/>
      <stop offset="0.25" stop-color="#2a3035"/>
      <stop offset="0.46" stop-color="#1c1f21"/>
      <stop offset="0.65" stop-color="#0a0606"/>
      <stop offset="0.88" stop-color="#323e4f"/>
    </radialGradient>
    <radialGradient id="radial-gradient-5" cx="607.76" cy="98.72" r="107.78" gradientTransform="matrix(1, 0, 0, -1, -397.71, 144.27)" gradientUnits="userSpaceOnUse">
      <stop offset="0.18" stop-color="#b7bcbe"/>
      <stop offset="0.3" stop-color="#999ea3"/>
      <stop offset="0.53" stop-color="#6d7479"/>
      <stop offset="0.72" stop-color="#4c555a"/>
      <stop offset="0.89" stop-color="#374147"/>
      <stop offset="1" stop-color="#303a40"/>
    </radialGradient>
    <radialGradient id="radial-gradient-6" cx="115.76" cy="165.29" r="205.82" gradientTransform="matrix(1, 0, 0, -1, 612.431458, 257.02742)" gradientUnits="userSpaceOnUse">
      <stop offset="0.13" stop-color="#f68b3d"/>
      <stop offset="0.18" stop-color="#f58231"/>
      <stop offset="0.44" stop-color="#e85424"/>
      <stop offset="0.65" stop-color="#b72225"/>
      <stop offset="0.87" stop-color="#e14125"/>
    </radialGradient>
    <radialGradient id="radial-gradient-7" cx="541.89" cy="-156.51" r="196.2" gradientTransform="matrix(1, 0, 0, -1, 398.14093, 118.621319)" gradientUnits="userSpaceOnUse">
      <stop offset="0.2" stop-color="#8b8d87"/>
      <stop offset="0.27" stop-color="#6e6a67"/>
      <stop offset="0.36" stop-color="#453839"/>
      <stop offset="0.65" stop-color="#010101"/>
      <stop offset="0.72" stop-color="#141111"/>
      <stop offset="0.89" stop-color="#382d2d"/>
      <stop offset="0.98" stop-color="#453839"/>
    </radialGradient>
    <radialGradient id="radial-gradient-8" cx="344.96" cy="165.29" r="205.82" gradientTransform="matrix(1, 0, 0, -1, 576.782471, 437.100548)" gradientUnits="userSpaceOnUse">
      <stop offset="0.08" stop-color="#acd141"/>
      <stop offset="0.26" stop-color="#abd03a"/>
      <stop offset="0.43" stop-color="#accc37"/>
      <stop offset="0.51" stop-color="#a2be3a"/>
      <stop offset="0.65" stop-color="#869c3b"/>
      <stop offset="0.87" stop-color="#a7b739"/>
    </radialGradient>
    <radialGradient id="radial-gradient-9" cx="767.98" cy="-149.6" r="222.74" gradientTransform="matrix(1, 0, 0, -1, 166.089539, 119.13686)" xlink:href="#radial-gradient"/>
    <radialGradient id="radial-gradient-10" cx="766.75" cy="-147.34" r="217.22" gradientTransform="matrix(1, 0, 0, -1, 172.488098, 111.824242)" xlink:href="#radial-gradient-2"/>
    <linearGradient id="linear-gradient-8" x1="434.61" y1="431.11" x2="434.61" y2="361.05" gradientTransform="matrix(1, 0, 0, -1, -35.67, 455.48)" gradientUnits="userSpaceOnUse">
      <stop offset="0" stop-color="#f6eb16"/>
      <stop offset="0.5" stop-color="#fcf7be"/>
      <stop offset="0.52" stop-color="#f6eb16"/>
      <stop offset="1" stop-color="#f6eb16"/>
    </linearGradient>
    <linearGradient id="linear-gradient-9" x1="297.82" y1="477.63" x2="297.82" y2="407.57" gradientTransform="matrix(1, 0, 0, -1, 0, 502)" xlink:href="#linear-gradient-8"/>
    <linearGradient id="linear-gradient-10" x1="282.62" y1="477.63" x2="282.62" y2="407.57" gradientTransform="matrix(1, 0, 0, -1, 0, 502)" xlink:href="#linear-gradient-8"/>
    <linearGradient id="linear-gradient-11" x1="267.46" y1="477.63" x2="267.46" y2="407.57" gradientTransform="matrix(1, 0, 0, -1, 0, 502)" xlink:href="#linear-gradient-8"/>
    <linearGradient id="linear-gradient-12" x1="252.26" y1="477.63" x2="252.26" y2="407.57" gradientTransform="matrix(1, 0, 0, -1, 0, 502)" xlink:href="#linear-gradient-8"/>
    <linearGradient id="linear-gradient-13" x1="237.11" y1="477.63" x2="237.11" y2="407.57" gradientTransform="matrix(1, 0, 0, -1, 0, 502)" xlink:href="#linear-gradient-8"/>
    <linearGradient id="linear-gradient-14" x1="221.95" y1="477.63" x2="221.95" y2="407.57" gradientTransform="matrix(1, 0, 0, -1, 0, 502)" xlink:href="#linear-gradient-8"/>
  </defs>
  <circle class="cls-1" cx="250.08" cy="136.32" r="135.4"/>
  <path class="cls-2" d="M268.16,102.79c35-11.37,75.77-14,75.77-14s24.48-7.29-6.41-4.66-71.69,13.39-71.69,13.39S233.15,114.15,268.16,102.79Zm-96.59-2.54a114,114,0,0,0-42.28-5.45c-4,1.64-.4,4-.4,4s37.74,1.64,42.79,9-.11-7.58-.11-7.58Zm50.34-35.52c-.25-4.61,1.28-37.38,9.22-49.67s-4.35-1.54-4.35-1.54-11.17,20.46-9.38,52c5.12,3.33,4.77,3.89,4.51-.74Zm-36.34,94.2s-14.28,27.71-13.79,57.85c2.48,10.63,4.7,1.13,4.7,1.13s.68-31.17,14.29-55.79C203.29,139.56,185.57,158.93,185.57,158.93Zm68.91-.91c-13.31-26.87-6.25,1.64-6.25,1.64s21.92,37.45,53.91,53.05c6.16-.77,3.79-3.05,3.79-3.05s-38.24-24.74-51.55-51.7Zm104.88-30.94c2.57,9.71-5.71,50.86-18.77,66.65a26.17,26.17,0,0,1,3.87,2.39S363.93,170.8,364,131.18c-.89-14.62-5-5.17-4.71-4.1ZM282.68,251.61s-40.48,6.24-70.55-3.28c-3.58,1.79-2.45,4.14-2.45,4.14s37.74,11.86,77.68,1.88c13.21-6.15-4.78-2.74-4.78-2.74ZM120.11,123.09s-.77-6.91-2.55,3.59c-2.3,56.07,26.1,81.93,26.1,81.93s7.91,5.18,4.92-1C118.29,182,120,123.09,120,123.09ZM329.79,53.46s13.31,10.76,3.58-1.53C312.63,18.64,283.37,7.35,280,6.6s-13.32-1.79-9.47.77c36.79,8.23,59.14,46.09,59.14,46.09Z"/>
  <path class="cls-3" d="M324.36,91.47a376.81,376.81,0,0,0-45.53,9.06c-2.32.89-3,2.13-4.63,6.56s-15.65,47.59-16.72,51.41.72,2.13,1.95-1.07,16-44.1,17.95-48.89,5.34-5.7,13.34-7.47,31.18-7.46,33.61-7.64S327,91.29,324.36,91.47Z"/>
  <path class="cls-4" d="M293.86,209.12c-4.83-2.61-22.1-15.48-31.34-27.52s-10.65-14.86-13.87-15.06-39.38.39-54.83-.81c-3.28.2-10.85,7-15.67,42.39-.39,3,2.41-4.22,4-11.26S189.4,172,193.82,170c2.61-1.21,21.89,0,37-.2,15.69-.21,17.89-.6,20.89,3,3.84,4.6,20.09,27.72,41.78,37.17C296.45,210.72,293.86,209.12,293.86,209.12Z"/>
  <path class="cls-5" d="M131.93,102.45c.84-1,.88-2.66,5.77-2.23s21.73,2.71,24.22,3.9,2.61,4.24,4.14,10.54a314.51,314.51,0,0,0,9.84,30.09c3.66,9.45,8.37,18.36,5.43,15.42s-13.8-28.56-17.26-39.64-3.28-12.48-7.71-13.68a180.83,180.83,0,0,0-17.82-3.91C135.09,102.61,131,103.48,131.93,102.45Z"/>
  <path class="cls-6" d="M229.54,20.35c-1,2-5.93,15.42-6.43,40.15.16,1.52,2,1.64,5.41,3.56s33.54,19,39,23,2.71,0-3.38-5.09-28.48-19.15-31.7-20.79-5.09-2.54-5.42-6.56,1.19-19.31,2.38-25.25S231.23,17.13,229.54,20.35Z"/>
  <path class="cls-7" d="M216.74,52.21c-.51,5.76-.16,9-2,10.17A209,209,0,0,0,166.93,95.2c-1.53,1.52-3.06,1.52-7.45.34S157.1,93.9,161,93.16s13.21-9.32,23.38-16.77,23-13.38,25.42-14.91a10.09,10.09,0,0,0,4.41-5.76C214.62,53.72,217,48.83,216.74,52.21Z"/>
  <path class="cls-8" d="M211.1,256.8c1.87-.87,3.06-2.51,5.85-2s30,7,58.15,2.36c1.27-.28,1.4.15,4.33,1.64s-1,.56-2.51.41-13.52,1.95-27.74,1.64a159.68,159.68,0,0,1-30.8-3.82C214.57,256.09,209,257.77,211.1,256.8Z"/>
  <path class="cls-9" d="M372.61,130.24c-2.23,1-7.49,3.68-7.66,6.57s-3.28,33.85-14.67,52c-.83,1.16,1.33,6.17,2.33,10.33s.68-5.16.49-7.49S360,178,363.28,163.32A255.6,255.6,0,0,0,367.61,138c.49-2.49,3.28-5.49,5.68-7S375.14,129.08,372.61,130.24Z"/>
  <path class="cls-10" d="M283.77,7a112.5,112.5,0,0,1,45.69,37.85,9.67,9.67,0,0,0,4.92,2s-2-2.79-7.68-10.17c-7.17-9.34-22.51-22.35-32-26.25S279.09,4.17,283.77,7Z"/>
  <path class="cls-11" d="M302.86,209.2s-33.3-18.82-53-55c-6.66-9.27-2,2-2,2s21.43,36.49,52.72,54.44C305.47,211.23,302.86,209.2,302.86,209.2Zm59.88-78.76c-1.45-34.18-2.07-1-2.07-1A118.86,118.86,0,0,1,344,190.67c-18.24,30.13,1.74.58,1.74.58s18.48-26.73,17-60.82ZM331.82,87.58s-22.89.58-64,11.88,2,1.17,2,1.17,43.15-11.31,61.4-11,.57-2.07.57-2.07Zm-.9-33.7c24.33,40-.24-3.36-.24-3.36S311.9,18.33,277.45,7c-6.37-1.17-6.3-.22-6.3-.22s35.44,7.09,59.77,47.06ZM220.78,64c-.5-3.43-.1-31.52,8.58-48.47,7.69-15-2.1-.61-2.1-.61s-10,19.58-8.45,49.32c1.36,8.29,2.46,3.15,2-.28ZM132.17,95.82s-5.89,1.92-.41,2.05a127.05,127.05,0,0,1,34.35,4.79s4.51,1.37,2.33-1.51c-15-6.31-36.17-5.36-36.17-5.36ZM188.54,158a124.52,124.52,0,0,0-15.43,54.52c1.53,7.6,2.82,2.82,2.82,2.82s-3-21.51,13.26-53.86C196.36,143,188.54,158,188.54,158Zm-43.45,48c-26.5-25.63-26.26-77.55-26.26-77.55s-2.16-7.82-.65,10.87c3.28,47.35,25,67.27,25,67.27s9.6,6,1.94-.54Zm134.67,46.69a150.41,150.41,0,0,1-66.89-2.82s-32.82-6.82.42,2.17a152.77,152.77,0,0,0,65,2.82s11.3-5,1.52-2.12Z"/>
  <path class="cls-12" d="M274.05,93.57C260.83,82.09,228,64.81,223.35,62.83c-3.28-1.45-3.61-1.92-7.45,0-19,8.2-45.17,30-48.78,33.88s-3.36,2.64-2.39,7.92c3.36,19.46,15.37,49.23,18.05,54.07s2.64,5.28,6.25,5.75c7.2.73,53.81,1.65,60.3.73s5.53-1.45,7-5.53c2.16-7.21,18.26-55.26,19.46-58.15S277.66,96.94,274.05,93.57ZM215.43,249.28c-18.74-10.33-37.74-33.88-38.92-36.09s-2.17-3.14-7-3.61-22.1-4.09-24-4.81-3.61-3.61-4.08,2.16a47.22,47.22,0,0,0,1.18,11.49C153.55,236,178,254.94,196.35,260.56a37,37,0,0,0,17.9-6.57C217.1,251.92,218.54,251.2,215.43,249.28ZM139.62,58.17c-14.76,15.73-26.92,50-24.87,76.46,2.67-.94,4.63-.63,4.81-2.6.72-9.84,10.33-28.83,12.48-31.71s2.17-3.37,2.17-6c-.25-7,6.25-33.16,7.69-35.8C142.36,57.64,141.26,57.69,139.62,58.17ZM343.08,189.43c-6,4.08-33.64,15.37-39.17,16.57s-5.53.48-7,6.73c-3.84,13.7-15.14,33.88-18.26,37.24s-3.28,4.56-1.64,6.25,7,5.53,16.41,6.25a28.66,28.66,0,0,0,7.33-.62c19.26-5.64,43.68-23.76,53.11-38.51,1.48-13.12-2.9-28.84-4.46-31.52s-2.81-4.53-6.35-2.38ZM224.55,19.33c4.09.47,3.86-1,9.84-2.4s22.83-7,42.53-7.69c4-.48,5.7-1.43.18-5.61C272.48,1.26,258.6,0,249.33,0,224.86,0,195,9.47,182.91,18.85,186.86,18.77,212.51,17.7,224.55,19.33ZM350.89,46.17h-.21c-3.12,1.64-15.38,1.92-18.74,1.92s-4.56.48-4.56,3.84-1.92,29.8-2.64,33.16.24,4.56,3.84,8.2S354,126.93,357.65,132s4.33,3.84,6.73,1.92,13.7-8.64,20.18-8.4h.34c.66-27-15.34-61.28-34-79.33Z"/>
  <path class="cls-13" d="M215.77,66.57a256.91,256.91,0,0,0-43.91,29.91c-2.92,3.9,16.56,14.29,48.41,17.87s42,3.28,46.48-8.11c1.31-3.36,2.64-6.69,1.85-8.73-1.29-3.28-7.41-6.81-18.75-13.93C229.44,70.8,219.3,64.91,215.77,66.57Z"/>
  <circle class="cls-14" cx="747.831" cy="119.627" r="135.4"/>
  <path class="cls-15" d="M 1066.051 284.711 C 1056.471 285.461 1047.371 290.781 1039.671 299.921 C 1037.802 302.191 1036.082 304.579 1034.521 307.071 C 1023.349 298.292 1011.745 290.079 999.751 282.461 C 1027.001 235.521 1037.361 209.331 1034.111 198.221 C 1032.581 197.161 1031.041 196.121 1029.461 195.101 L 1029.711 195.551 C 1030.611 197.551 1033.091 211.121 993.881 278.721 C 984.634 272.881 975.938 267.635 967.791 262.981 C 971.48 254.908 973.902 246.313 974.971 237.501 C 977.971 209.281 959.651 187.591 948.971 179.781 C 945.015 176.972 940.32 175.389 935.471 175.231 C 931.941 175.781 928.471 176.431 925.001 177.231 C 934.451 176.131 940.001 179.741 944.201 183.041 C 954.201 190.781 970.601 212.571 968.041 236.771 C 967.032 244.633 964.869 252.302 961.621 259.531 C 922.421 237.751 895.881 229.221 877.401 226.151 C 862.501 223.681 851.401 226.341 845.931 230.501 C 844.771 232.141 843.621 233.781 842.521 235.421 C 850.621 232.681 875.521 219.301 958.521 265.631 C 954.422 273.123 948.838 279.701 942.111 284.961 C 926.841 296.701 907.651 305.351 883.571 311.441 C 858.331 318.001 843.371 323.741 833.921 330.041 C 829.001 333.009 825.881 338.232 825.601 343.971 C 826.521 347.411 827.571 350.788 828.751 354.101 C 828.471 349.861 828.751 345.661 829.951 343.181 C 831.716 339.257 834.797 336.074 838.661 334.181 C 852.181 326.701 876.041 320.611 885.291 318.181 C 910.291 311.881 930.291 302.831 946.291 290.501 C 953.764 284.704 959.98 277.447 964.561 269.171 C 972.601 273.791 981.188 278.981 990.321 284.741 C 917.421 409.031 894.181 422.381 881.091 421.501 C 882.731 422.631 884.571 423.621 886.311 424.671 C 892.871 425.401 902.191 422.611 915.311 408.031 C 932.311 389.131 957.971 353.751 996.231 288.481 C 1008.208 296.144 1019.79 304.408 1030.931 313.241 C 1023.751 327.051 1020.241 342.871 1021.081 352.811 C 1021.729 358.171 1022.65 363.495 1023.841 368.761 C 1027.841 388.671 1034.241 417.171 1020.421 428.081 C 1023.421 426.441 1026.251 424.671 1029.101 422.841 C 1031.884 419.511 1033.752 415.513 1034.521 411.241 C 1037.521 397.951 1033.521 381.291 1030.661 367.401 C 1029.431 361.401 1028.381 356.141 1028.021 352.221 C 1027.231 343.621 1030.401 329.941 1036.421 317.761 C 1074.911 350.241 1075.931 368.861 1075.841 372.311 C 1076.711 370.671 1077.481 369.031 1078.271 367.311 C 1078.831 360.141 1076.971 342.311 1040.011 311.521 C 1041.502 309.036 1043.173 306.663 1045.011 304.421 C 1051.571 296.591 1059.611 291.291 1067.401 290.651 C 1083.531 289.341 1089.181 295.571 1091.211 300.021 C 1091.081 297.951 1091.011 295.881 1090.781 293.851 C 1087.401 288.501 1080.461 283.561 1066.051 284.711 Z"/>
  <circle class="cls-16" cx="941.382" cy="299.701" r="135.4"/>
  <path class="cls-17" d="M 1001.19 202.757 C 1026.03 192.517 1050.05 209.157 1063.46 223.627 C 1057.192 215.027 1049.94 207.19 1041.85 200.277 C 1034.2 194.977 1026.56 191.707 1018.85 190.877 C 989.79 187.597 964.24 210.567 956.78 239.227 C 948.71 270.227 957.53 289.357 962.9 301.827 C 973.9 327.287 993.02 343.337 1004.46 367.277 C 1018.36 396.387 1010.2 415.277 1004.03 422.007 C 996.03 430.687 983.95 434.957 974.5 437.077 C 984.825 435.521 994.933 432.766 1004.62 428.867 C 1011.38 424.947 1016.32 420.257 1019.1 414.927 C 1022.559 407.835 1024.15 399.976 1023.72 392.097 C 1022.93 360.827 999.24 338.447 978.54 303.497 C 957.17 267.347 966.74 216.937 1001.19 202.757 Z M 864.47 201.817 C 860.081 205.595 856.607 210.321 854.31 215.637 C 849.72 226.557 855.95 242.937 856.75 258.297 C 857.75 277.167 853.47 299.137 839.48 327.047 C 831.72 342.547 831.65 357.737 835.48 368.687 C 840.515 377.754 846.571 386.216 853.53 393.907 C 830.72 367.907 844.28 341.597 855.3 320.247 C 871.5 288.957 871.56 266.337 863.74 232.247 C 859.11 212.047 866.74 202.827 872.86 194.967 C 870.02 197.167 867.22 199.447 864.48 201.857 Z"/>
  <path class="cls-18" d="M 1048.248 192.744 C 1040.598 187.444 1032.958 184.184 1025.248 183.344 C 996.188 180.064 970.638 203.034 963.178 231.694 C 955.108 262.744 963.928 281.834 969.298 294.294 C 980.298 319.754 999.418 335.804 1010.858 359.744 C 1024.758 388.854 1016.598 407.744 1010.428 414.474 C 1003.868 421.614 994.518 425.754 986.148 428.174 L 987.408 427.884 C 1017.868 420.274 1019.868 401.184 1020.538 394.474 C 1021.078 385.654 1019.358 374.524 1013.028 361.264 C 1001.538 337.314 982.438 321.264 971.458 295.814 C 966.098 283.344 956.288 263.004 964.898 232.154 C 973.508 201.304 998.288 181.664 1027.348 184.864 C 1035.017 185.94 1042.324 188.807 1048.678 193.234 C 1048.555 193.054 1048.411 192.889 1048.248 192.744 Z M 860.708 208.114 C 856.118 219.044 862.348 235.424 863.148 250.774 C 864.148 269.644 859.868 291.614 845.878 319.524 C 838.118 335.034 838.048 350.224 841.878 361.174 C 842.768 362.814 843.738 364.334 844.688 365.894 L 844.688 365.734 C 842.928 362.564 835.978 346.604 847.378 320.734 C 859.948 292.184 865.808 270.054 864.818 251.174 C 864.298 240.994 860.438 225.854 860.148 220.944 C 859.698 213.364 861.358 205.884 869.458 195.764 C 865.734 199.245 862.757 203.447 860.708 208.114 Z"/>
  <path class="cls-19" d="M497.77,36a71.55,71.55,0,0,1-70.06,56.29H299.79l14.46-68.88H487.93a9.85,9.85,0,0,1,10.15,9.52,10,10,0,0,1-.31,2.78Z"/>
  <polygon class="cls-20" points="295.56 92.27 285.03 92.27 299.49 23.68 310.61 23.68 295.56 92.27"/>
  <polygon class="cls-21" points="280.4 92.27 269.88 92.27 284.24 23.68 295.36 23.68 280.4 92.27"/>
  <polygon class="cls-22" points="265.25 92.27 254.72 92.27 269.09 23.68 280.21 23.68 265.25 92.27"/>
  <polygon class="cls-23" points="250 92.27 239.47 92.27 253.93 23.68 265.05 23.68 250 92.27"/>
  <polygon class="cls-24" points="234.84 92.27 224.31 92.27 238.78 23.68 249.9 23.68 234.84 92.27"/>
  <polygon class="cls-25" points="219.69 92.27 209.16 92.27 223.63 23.68 234.75 23.68 219.69 92.27"/>
  <path class="cls-26" d="M334.33,78.3l8.56-40.64h6.59L342.1,72.59h15l-1.18,5.71Z"/>
  <path class="cls-26" d="M362.57,78.3l8.66-40.64h6.49L369.06,78.3Z"/>
  <path class="cls-26" d="M391.6,71.41q2-4.92,3.83-8.56l12.7-25.19h7.08L394,78.3h-7.19l-4-40.64h6.79l2.07,25.19v8.56Z"/>
  <path class="cls-26" d="M433.51,78.3H411.87l8.56-40.64H442l-1.18,5.7H425.94l-2.36,11h14L436.37,60h-14l-2.65,12.7h14.95Z"/>
</svg>