<svg xmlns="http://www.w3.org/2000/svg" xmlns:xlink="http://www.w3.org/1999/xlink" viewBox="0 0 500.32 499.42"><defs><style>.cls-1{fill:#7c828b;}.cls-2{fill:#c5ced6;}.cls-3{fill:#414042;}.cls-4{fill:#e6e7e8;}.cls-5{fill:#00a09d;}.cls-6{fill:url(#radial-gradient);}.cls-7{fill:url(#radial-gradient-2);}.cls-8{fill:#fff;}.cls-9{fill:url(#linear-gradient);}.cls-10{fill:url(#linear-gradient-2);}.cls-11{fill:url(#linear-gradient-3);}.cls-12{fill:url(#linear-gradient-4);}.cls-13{fill:url(#linear-gradient-5);}.cls-14{fill:url(#linear-gradient-6);}.cls-15{fill:url(#linear-gradient-7);}.cls-16{fill:url(#radial-gradient-3);}.cls-17{fill:url(#radial-gradient-4);}.cls-18{fill:url(#radial-gradient-5);}</style><radialGradient id="radial-gradient" cx="339.42" cy="172.05" r="213.61" gradientTransform="matrix(1, 0, 0, -1, 0, 502)" gradientUnits="userSpaceOnUse"><stop offset="0" stop-color="#fff"/><stop offset="0.43" stop-color="#d6d7e1"/><stop offset="0.5" stop-color="#c7c8d1"/><stop offset="0.62" stop-color="#a3a3ac"/><stop offset="0.65" stop-color="#9a9aa2"/><stop offset="0.89" stop-color="#d2d2d2"/></radialGradient><radialGradient id="radial-gradient-2" cx="735.8" cy="-186.41" r="211.46" gradientTransform="matrix(1, 0, 0, -1, -397.71, 144.27)" gradientUnits="userSpaceOnUse"><stop offset="0" stop-color="#e6e6e5"/><stop offset="0.43" stop-color="#bdbdc7"/><stop offset="0.5" stop-color="#b0b0b8"/><stop offset="0.62" stop-color="#8a8a93"/><stop offset="0.65" stop-color="#82828a"/><stop offset="0.89" stop-color="#b9b9b9"/></radialGradient><linearGradient id="linear-gradient" x1="744.31" y1="-241.48" x2="742.51" y2="-340.08" gradientTransform="matrix(1, 0, 0, -1, -397.71, 144.27)" gradientUnits="userSpaceOnUse"><stop offset="0" stop-color="#fff"/><stop offset="0.05" stop-color="#fafbfc"/><stop offset="0.7" stop-color="#b6b5bb"/><stop offset="1" stop-color="#9a9aa2"/></linearGradient><linearGradient id="linear-gradient-2" x1="681.08" y1="-195.78" x2="621.56" y2="-235.91" xlink:href="#linear-gradient"/><linearGradient id="linear-gradient-3" x1="745.39" y1="-138.76" x2="792.88" y2="-102.08" xlink:href="#linear-gradient"/><linearGradient id="linear-gradient-4" x1="696.3" y1="-154.68" x2="673.74" y2="-124.46" xlink:href="#linear-gradient"/><linearGradient id="linear-gradient-5" x1="752.82" y1="-331.15" x2="752.82" y2="-354.21" xlink:href="#linear-gradient"/><linearGradient id="linear-gradient-6" x1="863.27" y1="-242.3" x2="880.04" y2="-245.01" xlink:href="#linear-gradient"/><linearGradient id="linear-gradient-7" x1="812.36" y1="-106.47" x2="829.58" y2="-87.84" xlink:href="#linear-gradient"/><radialGradient id="radial-gradient-3" cx="731.13" cy="-187.16" r="201.49" gradientTransform="matrix(1, 0, 0, -1, -397.71, 144.27)" gradientUnits="userSpaceOnUse"><stop offset="0.09" stop-color="#b2bfc6"/><stop offset="0.32" stop-color="#949a9e"/><stop offset="0.46" stop-color="#85888a"/><stop offset="0.65" stop-color="#6f6969"/><stop offset="0.88" stop-color="#9aa5b8"/></radialGradient><radialGradient id="radial-gradient-4" cx="735.22" cy="-185.4" r="199.39" gradientTransform="matrix(1, 0, 0, -1, -397.71, 144.27)" gradientUnits="userSpaceOnUse"><stop offset="0" stop-color="#3c4a52"/><stop offset="0.25" stop-color="#2a3035"/><stop offset="0.46" stop-color="#1c1f21"/><stop offset="0.65" stop-color="#0a0606"/><stop offset="0.88" stop-color="#323e4f"/></radialGradient><radialGradient id="radial-gradient-5" cx="715.96" cy="-120.42" r="111.86" gradientTransform="matrix(1, 0, 0, -1, -397.71, 144.27)" gradientUnits="userSpaceOnUse"><stop offset="0.18" stop-color="#b7bcbe"/><stop offset="0.3" stop-color="#999ea3"/><stop offset="0.53" stop-color="#6d7479"/><stop offset="0.72" stop-color="#4c555a"/><stop offset="0.89" stop-color="#374147"/><stop offset="1" stop-color="#303a40"/></radialGradient></defs><g id="Layer_2" data-name="Layer 2"><g id="Layer_1-2" data-name="Layer 1"><polygon class="cls-1" points="313.39 398.67 186.62 398.67 193.87 344.13 307.17 344.13 313.39 398.67"/><path class="cls-2" d="M0,298.44v33.69a12.47,12.47,0,0,0,12.44,12.43H487.57A12.47,12.47,0,0,0,500,332.13V298.44Z"/><path class="cls-3" d="M500,12.43A12.47,12.47,0,0,0,487.57,0H12.44A12.47,12.47,0,0,0,0,12.43v286H500Z"/><rect class="cls-4" x="17.62" y="16.58" width="464.77" height="265.29"/><polygon class="cls-2" points="186.62 398.67 313.39 398.67 335.69 403.94 164.31 404.07 186.62 398.67"/><polygon class="cls-1" points="334.52 406.87 165.48 406.87 164.36 404.07 335.69 403.94 334.52 406.87"/><path class="cls-3" d="M258.9,323a8.9,8.9,0,1,1-8.9-8.9A8.9,8.9,0,0,1,258.9,323Z"/><path class="cls-5" d="M213.65,249.21,131.43,58.8h58.22l43.4,117,38.82-117h53.39L253.61,249.21Z"/><circle class="cls-6" cx="359.8" cy="358.9" r="140.52"/><path class="cls-7" d="M378.56,324.11c36.29-11.81,78.64-14.53,78.64-14.53s25.41-7.56-6.65-4.84-74.4,13.9-74.4,13.9S342.23,335.89,378.56,324.11Zm-100.24-2.64a118.34,118.34,0,0,0-43.89-5.66c-4.1,1.71-.41,4.14-.41,4.14s39.17,1.7,44.42,9.38-.12-7.86-.12-7.86Zm52.24-36.87c-.26-4.79,1.33-38.79,9.57-51.55s-4.51-1.6-4.51-1.6-11.6,21.24-9.74,53.91c5.31,3.46,4.95,4,4.68-.76Zm-37.72,97.76s-14.81,28.76-14.3,60c2.57,11,4.87,1.18,4.87,1.18s.71-32.36,14.83-57.9C311.23,362.27,292.84,382.36,292.84,382.36Zm71.52-.94c-13.81-27.89-6.49,1.71-6.49,1.71s22.76,38.86,56,55.05c6.39-.8,3.93-3.17,3.93-3.17s-39.69-25.68-53.5-53.65Zm108.85-32.11c2.67,10.08-5.93,52.79-19.48,69.17a26.89,26.89,0,0,1,4,2.49S478,394.69,478,353.57c-.92-15.18-5.18-5.37-4.89-4.26ZM393.64,478.56s-42,6.47-73.23-3.41c-3.71,1.86-2.54,4.29-2.54,4.29s39.17,12.31,80.62,2c13.71-6.39-5-2.84-5-2.84ZM224.91,345.17s-.8-7.17-2.65,3.73c-2.39,58.19,27.09,85,27.09,85s8.21,5.39,5.11-1c-31.44-26.58-29.63-87.75-29.63-87.75ZM442.52,272.9s13.82,11.17,3.72-1.58c-21.53-34.56-51.89-46.27-55.35-47s-13.82-1.86-9.82.8c38.18,8.54,61.37,47.83,61.37,47.83Z"/><path class="cls-8" d="M436.89,312.36a390,390,0,0,0-47.26,9.4c-2.4.91-3.13,2.21-4.8,6.81S368.59,378,367.48,381.92s.75,2.21,2-1.11,16.6-45.77,18.62-50.74,5.54-5.91,13.85-7.75,32.35-7.75,34.87-7.94S439.66,312.17,436.89,312.36Z"/><path class="cls-9" d="M405.23,434.45c-5-2.71-22.94-16.06-32.52-28.56s-11.06-15.42-14.39-15.63-40.87.41-56.91-.83c-3.41.2-11.26,7.3-16.27,44-.4,3.12,2.51-4.37,4.18-11.68s7.51-25.81,12.09-27.93c2.7-1.26,22.71,0,38.36-.2,16.28-.22,18.56-.63,21.68,3.13,4,4.77,20.84,28.77,43.36,38.57C407.92,436.12,405.23,434.45,405.23,434.45Z"/><path class="cls-10" d="M237.17,323.75c.87-1,.92-2.76,6-2.32s22.54,2.81,25.13,4.05,2.71,4.4,4.29,10.94,6.42,21.42,10.22,31.23,8.69,19.05,5.64,16S274.13,354,270.53,342.51s-3.4-13-8-14.2A188,188,0,0,0,244,324.26C240.46,323.92,236.25,324.82,237.17,323.75Z"/><path class="cls-11" d="M338.48,238.54c-1.09,2.07-6.15,16-6.68,41.66.17,1.59,2.11,1.71,5.62,3.7s34.81,19.69,40.45,23.84,2.81,0-3.51-5.28-29.56-19.87-32.9-21.57-5.28-2.64-5.62-6.82,1.23-20,2.47-26.2S340.23,235.2,338.48,238.54Z"/><path class="cls-12" d="M325.2,271.61c-.53,6-.17,9.31-2.12,10.55a217.38,217.38,0,0,0-49.58,34.06c-1.59,1.58-3.17,1.58-7.73.36s-2.47-1.7,1.58-2.47,13.71-9.67,24.27-17.4,23.84-13.9,26.37-15.48a10.46,10.46,0,0,0,4.58-6C323,273.17,325.42,268.1,325.2,271.61Z"/><path class="cls-13" d="M319.34,483.94c1.94-.9,3.18-2.61,6.08-2s31.11,7.24,60.35,2.45c1.31-.29,1.45.16,4.49,1.71s-1,.58-2.6.42-14,2-28.8,1.71a165.33,165.33,0,0,1-32-4C323,483.21,317.16,484.94,319.34,483.94Z"/><path class="cls-14" d="M487,352.59c-2.32,1.08-7.78,3.82-8,6.82s-3.41,35.13-15.23,54c-.86,1.21,1.38,6.41,2.42,10.73s.7-5.36.51-7.78,7.1-14.18,10.56-29.43a265.91,265.91,0,0,0,4.5-26.31c.51-2.58,3.4-5.7,5.89-7.27S489.59,351.39,487,352.59Z"/><path class="cls-15" d="M394.76,224.69A116.83,116.83,0,0,1,442.18,264a10.09,10.09,0,0,0,5.11,2.07s-2.07-2.89-8-10.55c-7.44-9.69-23.36-23.2-33.24-27.25S389.91,221.74,394.76,224.69Z"/><path class="cls-16" d="M414.58,434.54S380,415,359.58,377.42c-6.92-9.62-2.1,2.11-2.1,2.11S379.72,417.41,412.2,436C417.29,436.65,414.58,434.54,414.58,434.54Zm62.14-81.74c-1.5-35.47-2.15-1-2.15-1a123.31,123.31,0,0,1-17.32,63.53c-18.93,31.27,1.81.6,1.81.6s19.17-27.74,17.69-63.13Zm-32.08-44.48s-23.76.6-66.42,12.33,2.12,1.21,2.12,1.21,44.78-11.74,63.72-11.43.59-2.14.59-2.14Zm-.94-35c25.25,41.48-.26-3.49-.26-3.49S424,236.44,388.2,224.69c-6.6-1.21-6.54-.22-6.54-.22s36.79,7.36,62,48.84ZM329.39,283.85c-.52-3.56-.11-32.71,8.9-50.3,8-15.57-2.18-.63-2.18-.63s-10.42,20.31-8.77,51.18c1.42,8.6,2.56,3.27,2.06-.29Zm-92,33s-6.11,2-.43,2.13a131.4,131.4,0,0,1,35.65,5s4.68,1.41,2.41-1.57c-15.53-6.55-37.53-5.57-37.53-5.57Zm58.49,64.49a129.16,129.16,0,0,0-16,56.58c1.58,7.89,2.93,2.93,2.93,2.93S279.7,418.55,296.6,385C304.05,365.84,295.92,381.36,295.92,381.36Zm-45.09,49.82c-27.5-26.6-27.24-80.48-27.24-80.48s-2.25-8.12-.69,11.28c3.41,49.14,25.92,69.82,25.92,69.82s10,6.19,2-.57ZM390.6,479.65a156.12,156.12,0,0,1-69.42-2.93s-34.06-7.09.44,2.25a158.39,158.39,0,0,0,67.4,2.92s11.73-5.17,1.58-2.19Z"/><path class="cls-17" d="M384.68,314.54c-13.73-11.93-47.8-29.86-52.62-31.92-3.41-1.5-3.75-2-7.73,0-19.7,8.52-46.88,31.17-50.63,35.17s-3.49,2.74-2.49,8.22c3.5,20.2,16,51.09,18.74,56.11s2.74,5.49,6.48,6c7.48.75,55.86,1.7,62.59.75s5.73-1.5,7.23-5.74c2.25-7.48,19-57.35,20.2-60.35S388.42,318,384.68,314.54Zm-60.85,161.6c-19.44-10.73-39.16-35.17-40.39-37.46s-2.25-3.26-7.24-3.75-22.93-4.24-24.93-5-3.74-3.75-4.24,2.25a49.77,49.77,0,0,0,1.23,11.92C259.62,462.35,285,482,304,487.84A38.46,38.46,0,0,0,322.61,481C325.57,478.88,327.07,478.13,323.83,476.14ZM245.16,277.79c-15.33,16.33-27.94,51.93-25.82,79.35,2.78-1,4.81-.65,5-2.69.75-10.22,10.73-29.92,13-32.92s2.25-3.49,2.25-6.23c-.25-7.24,6.49-34.41,8-37.16C248,277.24,246.86,277.29,245.16,277.79ZM456.32,414c-6.23,4.24-34.91,16-40.65,17.2s-5.74.49-7.24,7c-4,14.22-15.71,35.16-18.95,38.65s-3.41,4.74-1.7,6.49,7.23,5.74,17,6.49a30,30,0,0,0,7.61-.65c20-5.86,45.33-24.65,55.12-40,1.53-13.63-3-29.94-4.63-32.72s-2.91-4.7-6.59-2.47Zm-123-176.54c4.24.49,4-1,10.22-2.49s23.69-7.23,44.14-8c4.19-.5,5.91-1.48.19-5.83-4.81-2.45-19.21-3.76-28.83-3.76-25.39,0-56.37,9.83-68.94,19.57C294.19,236.9,320.8,235.79,333.3,237.48Zm131.12,27.86h-.22c-3.23,1.7-15.95,2-19.44,2s-4.74.49-4.74,4-2,30.92-2.74,34.41.26,4.74,4,8.52,26.43,34.9,30.18,40.15,4.5,4,7,2,14.22-9,20.95-8.72h.35c.69-28-15.92-63.6-35.28-82.33Z"/><path class="cls-18" d="M324.19,286.51a266.24,266.24,0,0,0-45.57,31c-3,4.05,17.18,14.83,50.24,18.54s43.63,3.41,48.24-8.41c1.36-3.49,2.74-6.95,1.92-9.06-1.34-3.4-7.69-7.07-19.46-14.46C338.38,290.9,327.85,284.79,324.19,286.51Z"/></g></g></svg>