<svg id="Layer_1" data-name="Layer 1" xmlns="http://www.w3.org/2000/svg" viewBox="0 0 95 95"><defs><style>.cls-1{fill:#232323;}.cls-2{fill:#fff;}.cls-3{fill:#00a826;}</style></defs><title>BetMyWay</title><circle class="cls-1" cx="47.5" cy="47.5" r="47.5"/><polygon class="cls-2" points="39.17 61.77 36.87 70.05 34.47 61.77 30.82 61.77 28.43 70.05 24.43 57.83 19.02 57.83 25.93 77.37 30.18 77.37 32.61 69.19 35.08 77.37 39.36 77.37 44.89 61.77 39.17 61.77"/><path class="cls-2" d="M51.66,61.41a10.18,10.18,0,0,0-3.79.64A10.31,10.31,0,0,0,45,63.81l2.5,2.78a7.06,7.06,0,0,1,1.58-1,4.3,4.3,0,0,1,1.74-.36,2.33,2.33,0,0,1,1.44.45,1.63,1.63,0,0,1,.61,1.41v.38c-.49,0-1,.06-1.61.11s-1.22.14-1.91.24a9.62,9.62,0,0,0-2.11.55,6.16,6.16,0,0,0-1.74,1,4.22,4.22,0,0,0-1.18,1.47,4.44,4.44,0,0,0-.43,2,4.81,4.81,0,0,0,.38,2,4.26,4.26,0,0,0,1.07,1.48,4.68,4.68,0,0,0,1.62,1,6.14,6.14,0,0,0,2,.32,7,7,0,0,0,2.53-.43,5.42,5.42,0,0,0,1.72-1l.45,1.21h4.7V67.52a5.63,5.63,0,0,0-1.82-4.62A7.53,7.53,0,0,0,51.66,61.41Zm1.21,11.8a3.58,3.58,0,0,1-.91.52,3.21,3.21,0,0,1-1.1.19,1.87,1.87,0,0,1-1.3-.43,1.45,1.45,0,0,1-.46-1.11,1.87,1.87,0,0,1,.41-1.16,2.1,2.1,0,0,1,1.41-.69c.34-.07.67-.11,1-.15l1-.08Z"/><path class="cls-2" d="M70.23,61.77l-3.14,9.11-3.16-9.11H57.85L64.47,76.7l-.89,2a1.72,1.72,0,0,1-.63.8,1.83,1.83,0,0,1-1,.23,4,4,0,0,1-1.12-.19,5.54,5.54,0,0,1-1.06-.45l-1.41,3.77a11.31,11.31,0,0,0,2,.67,9.16,9.16,0,0,0,2.23.26,6.78,6.78,0,0,0,3.35-.8,5.45,5.45,0,0,0,2.25-2.75L76,61.77Z"/><path class="cls-2" d="M39.28,20.89A6.7,6.7,0,0,0,37,19.22,7.33,7.33,0,0,0,34,18.61a11.63,11.63,0,0,0-1.66.11,11,11,0,0,0-1.37.31V13.2H25.29V33.74a23.43,23.43,0,0,0,3.15.92,18.64,18.64,0,0,0,3.83.37,11.82,11.82,0,0,0,3.56-.52A7.77,7.77,0,0,0,38.65,33a7,7,0,0,0,1.85-2.66,9.92,9.92,0,0,0,.66-3.79,9.71,9.71,0,0,0-.48-3.09A7.53,7.53,0,0,0,39.28,20.89Zm-4.53,9a3,3,0,0,1-2.35,1,6.21,6.21,0,0,1-.79,0,6.63,6.63,0,0,1-.69-.15v-7.6l.77-.21a4.44,4.44,0,0,1,.84-.08,2.93,2.93,0,0,1,2.24,1,4.31,4.31,0,0,1,.88,3A4.58,4.58,0,0,1,34.75,29.86Z"/><path class="cls-2" d="M55.4,20.88a7.19,7.19,0,0,0-5.58-2.27,8.83,8.83,0,0,0-3.17.55,6.89,6.89,0,0,0-2.53,1.61,7.37,7.37,0,0,0-1.67,2.59,9.28,9.28,0,0,0-.62,3.49,9.12,9.12,0,0,0,.65,3.56A7.26,7.26,0,0,0,44.22,33a7.14,7.14,0,0,0,2.56,1.53,9.43,9.43,0,0,0,3.13.51,12.64,12.64,0,0,0,2.5-.22,8.51,8.51,0,0,0,2-.64,8.37,8.37,0,0,0,1.52-1A7.67,7.67,0,0,0,57.06,32l-3.44-2.7a4.52,4.52,0,0,1-1.4,1.19,3.94,3.94,0,0,1-1.82.38,2.9,2.9,0,0,1-3.09-3h10.2C57.49,24.73,56.79,22.39,55.4,20.88Zm-8.06,4a3.19,3.19,0,0,1,.85-2,2.32,2.32,0,0,1,1.69-.74,2.08,2.08,0,0,1,1.6.73,3.17,3.17,0,0,1,.75,2Z"/><path class="cls-2" d="M68.26,30.07a5.45,5.45,0,0,1-1,.58,2.51,2.51,0,0,1-1.11.26.75.75,0,0,1-.79-.45,3.78,3.78,0,0,1-.17-1.26V22.89H69L67.63,19H65.24V15H59.6v4H57.38v3.93H59.6v6.89a9,9,0,0,0,.24,2.16,4,4,0,0,0,.83,1.64,3.65,3.65,0,0,0,1.52,1,6.46,6.46,0,0,0,2.34.37,9.66,9.66,0,0,0,2.88-.38,8.49,8.49,0,0,0,2.3-1.13Z"/><path class="cls-3" d="M27.81,53.51V38.15h4.81l.25,1.29a6.36,6.36,0,0,1,1.78-1.14,6.59,6.59,0,0,1,2.69-.5,6.9,6.9,0,0,1,2.22.41,4,4,0,0,1,1.87,1.26,8.34,8.34,0,0,1,2.27-1.23,8.16,8.16,0,0,1,2.74-.44A5.92,5.92,0,0,1,51,39.34a6.37,6.37,0,0,1,1.43,4.47v9.7H46.88V44.25a3.18,3.18,0,0,0-.41-1.73,1.7,1.7,0,0,0-1.54-.63,2.74,2.74,0,0,0-1.28.3,6.93,6.93,0,0,0-.93.55,18.33,18.33,0,0,1,.1,2v8.75H37.34V44.25a3.1,3.1,0,0,0-.41-1.73,1.59,1.59,0,0,0-1.45-.63,2.44,2.44,0,0,0-1.22.32,4.92,4.92,0,0,0-.95.66V53.51Z"/><path class="cls-3" d="M54.46,55.21a6.38,6.38,0,0,0,1,.44,3.91,3.91,0,0,0,1.1.19,1.89,1.89,0,0,0,1-.22,1.73,1.73,0,0,0,.62-.79l.88-2-6.52-14.7h6l3.12,9,3.08-9h5.67L62.71,56.34a5.44,5.44,0,0,1-2.22,2.71,6.64,6.64,0,0,1-3.29.78,8.92,8.92,0,0,1-2.2-.25,12.07,12.07,0,0,1-1.92-.66Z"/></svg>