<svg xmlns="http://www.w3.org/2000/svg" xmlns:xlink="http://www.w3.org/1999/xlink" viewBox="0 0 1282.4 1282.4"><defs><style>.cls-1{fill:#606060;}.cls-2{fill:url(#linear-gradient);}.cls-3{fill:url(#linear-gradient-2);}.cls-4{fill:url(#linear-gradient-3);}.cls-5{fill:url(#linear-gradient-4);}.cls-6{fill:url(#linear-gradient-5);}.cls-7{fill:url(#linear-gradient-6);}.cls-8{fill:#225402;}.cls-9{fill:url(#linear-gradient-7);}.cls-10{fill:url(#linear-gradient-8);}.cls-11{fill:url(#linear-gradient-9);}.cls-12{fill:url(#linear-gradient-10);}.cls-13{fill:url(#linear-gradient-11);}.cls-14{fill:url(#linear-gradient-12);}.cls-15{fill:url(#linear-gradient-13);}.cls-16{fill:url(#linear-gradient-14);}.cls-17{fill:url(#linear-gradient-15);}.cls-18{fill:url(#linear-gradient-16);}.cls-19{fill:url(#linear-gradient-17);}.cls-20{fill:url(#linear-gradient-18);}.cls-21{fill:url(#linear-gradient-19);}.cls-22{fill:url(#linear-gradient-20);}.cls-23{fill:url(#linear-gradient-21);}.cls-24{fill:url(#linear-gradient-22);}.cls-25{fill:url(#linear-gradient-23);}.cls-26{fill:url(#linear-gradient-24);}.cls-27{fill:url(#linear-gradient-25);}.cls-28{fill:url(#linear-gradient-26);}.cls-29{fill:url(#linear-gradient-27);}.cls-30{fill:url(#linear-gradient-28);}.cls-31{fill:url(#linear-gradient-29);}.cls-32{fill:url(#linear-gradient-30);}.cls-33{fill:url(#linear-gradient-31);}.cls-34{fill:url(#linear-gradient-32);}.cls-35{fill:url(#linear-gradient-33);}.cls-36{fill:url(#linear-gradient-34);}.cls-37{fill:url(#linear-gradient-35);}.cls-38{fill:url(#linear-gradient-36);}.cls-39{fill:url(#linear-gradient-37);}.cls-40{fill:url(#linear-gradient-38);}.cls-41{fill:url(#linear-gradient-39);}.cls-42{fill:url(#linear-gradient-40);}.cls-43{fill:url(#linear-gradient-41);}.cls-44{fill:url(#linear-gradient-42);}.cls-45{fill:url(#linear-gradient-43);}.cls-46{fill:#00a826;}.cls-47{fill:url(#linear-gradient-44);}.cls-48{fill:url(#linear-gradient-45);}.cls-49{fill:url(#linear-gradient-46);}.cls-50{fill:url(#linear-gradient-47);}.cls-51{fill:url(#linear-gradient-48);}</style><linearGradient id="linear-gradient" x1="962.11" y1="1046.65" x2="1038.41" y2="770.72" gradientTransform="matrix(-0.96, 0.29, 0.29, 0.96, 1289.85, -187.82)" gradientUnits="userSpaceOnUse"><stop offset="0" stop-color="#f0f0f0"/><stop offset="0.61" stop-color="#c6c6c6"/><stop offset="0.7" stop-color="#bdbdbd"/><stop offset="0.85" stop-color="#a6a6a6"/><stop offset="1" stop-color="#878787"/></linearGradient><linearGradient id="linear-gradient-2" x1="969.32" y1="1043.94" x2="1048.75" y2="771.14" gradientTransform="matrix(-0.96, 0.29, 0.29, 0.96, 1289.85, -187.82)" gradientUnits="userSpaceOnUse"><stop offset="0" stop-color="#539b27"/><stop offset="0.58" stop-color="#31810f"/><stop offset="0.95" stop-color="#2a7005"/></linearGradient><linearGradient id="linear-gradient-3" x1="998.4" y1="1053.9" x2="1074.3" y2="779.4" xlink:href="#linear-gradient"/><linearGradient id="linear-gradient-4" x1="986.51" y1="1051.85" x2="1086.99" y2="805.11" gradientTransform="matrix(-0.96, 0.29, 0.29, 0.96, 1289.85, -187.82)" gradientUnits="userSpaceOnUse"><stop offset="0" stop-color="#f0f0f0"/><stop offset="0.45" stop-color="#eaeaea"/><stop offset="0.77" stop-color="#e2e2e2"/><stop offset="1" stop-color="#c6c6c6"/></linearGradient><linearGradient id="linear-gradient-5" x1="979.64" y1="801.82" x2="998.45" y2="720.3" gradientTransform="matrix(-0.96, 0.29, 0.29, 0.96, 1289.85, -187.82)" gradientUnits="userSpaceOnUse"><stop offset="0" stop-color="#d8d8d8"/><stop offset="0.95" stop-color="#848484"/></linearGradient><linearGradient id="linear-gradient-6" x1="1118.83" y1="774.29" x2="1118.83" y2="644.06" gradientTransform="matrix(-0.87, 0.49, 0.49, 0.87, 1088.98, -322.03)" gradientUnits="userSpaceOnUse"><stop offset="0" stop-color="#a0a0a0"/><stop offset="0" stop-color="#a2a2a2"/><stop offset="0.09" stop-color="#ccc"/><stop offset="0.15" stop-color="#e6e6e6"/><stop offset="0.19" stop-color="#f0f0f0"/><stop offset="1" stop-color="#c6c6c6"/></linearGradient><linearGradient id="linear-gradient-7" x1="1002.5" y1="845.91" x2="1011.7" y2="849.26" gradientTransform="matrix(-0.96, 0.29, 0.29, 0.96, 1195.87, -202.98)" gradientUnits="userSpaceOnUse"><stop offset="0" stop-color="#fff"/><stop offset="1" stop-color="#bbb"/></linearGradient><linearGradient id="linear-gradient-8" x1="977.41" y1="832.45" x2="1005.57" y2="850.32" xlink:href="#linear-gradient-7"/><linearGradient id="linear-gradient-9" x1="948.99" y1="1040.48" x2="945.94" y2="1050.13" gradientTransform="matrix(-0.96, 0.29, 0.29, 0.96, 1195.87, -202.98)" gradientUnits="userSpaceOnUse"><stop offset="0" stop-color="#6cbc39"/><stop offset="0.28" stop-color="#5dab2b"/><stop offset="0.55" stop-color="#53a022"/><stop offset="0.63" stop-color="#4ba122"/><stop offset="0.76" stop-color="#35a323"/><stop offset="0.92" stop-color="#11a625"/><stop offset="0.98" stop-color="#00a826"/></linearGradient><linearGradient id="linear-gradient-10" x1="1244.6" y1="481.22" x2="1247.56" y2="692.02" gradientTransform="matrix(-0.96, 0.29, 0.29, 0.96, 1289.85, -187.82)" gradientUnits="userSpaceOnUse"><stop offset="0" stop-color="#00a826"/><stop offset="0.98" stop-color="#00a826"/></linearGradient><linearGradient id="linear-gradient-11" x1="1244.19" y1="505.12" x2="1243.94" y2="497.79" gradientTransform="matrix(-0.96, 0.29, 0.29, 0.96, 1289.85, -187.82)" gradientUnits="userSpaceOnUse"><stop offset="0" stop-color="#529129"/><stop offset="0.97" stop-color="#245b00"/></linearGradient><linearGradient id="linear-gradient-12" x1="1233.12" y1="495.41" x2="1232.87" y2="488.09" xlink:href="#linear-gradient-11"/><linearGradient id="linear-gradient-13" x1="1252.23" y1="515.89" x2="1251.97" y2="508.57" xlink:href="#linear-gradient-11"/><linearGradient id="linear-gradient-14" x1="1259.48" y1="527.85" x2="1259.22" y2="520.52" xlink:href="#linear-gradient-11"/><linearGradient id="linear-gradient-15" x1="1264.38" y1="539.21" x2="1264.12" y2="531.89" xlink:href="#linear-gradient-11"/><linearGradient id="linear-gradient-16" x1="1268.11" y1="551.17" x2="1267.85" y2="543.84" xlink:href="#linear-gradient-11"/><linearGradient id="linear-gradient-17" x1="1270.85" y1="563.71" x2="1270.59" y2="556.38" xlink:href="#linear-gradient-11"/><linearGradient id="linear-gradient-18" x1="1272.42" y1="576.25" x2="1272.16" y2="568.93" xlink:href="#linear-gradient-11"/><linearGradient id="linear-gradient-19" x1="1273.4" y1="590.36" x2="1273.14" y2="583.04" xlink:href="#linear-gradient-11"/><linearGradient id="linear-gradient-20" x1="1272.81" y1="603.39" x2="1272.55" y2="596.07" xlink:href="#linear-gradient-11"/><linearGradient id="linear-gradient-21" x1="1271.24" y1="616.03" x2="1270.99" y2="608.71" xlink:href="#linear-gradient-11"/><linearGradient id="linear-gradient-22" x1="1269.28" y1="628.48" x2="1269.03" y2="621.15" xlink:href="#linear-gradient-11"/><linearGradient id="linear-gradient-23" x1="1265.76" y1="641.12" x2="1265.5" y2="633.79" xlink:href="#linear-gradient-11"/><linearGradient id="linear-gradient-24" x1="1261.25" y1="653.56" x2="1260.99" y2="646.24" xlink:href="#linear-gradient-11"/><linearGradient id="linear-gradient-25" x1="1254.98" y1="665.71" x2="1254.72" y2="658.39" xlink:href="#linear-gradient-11"/><linearGradient id="linear-gradient-26" x1="1245.18" y1="679.14" x2="1244.93" y2="671.81" xlink:href="#linear-gradient-11"/><linearGradient id="linear-gradient-27" x1="772.55" y1="298.71" x2="795.67" y2="960.98" gradientTransform="matrix(-0.96, 0.29, 0.29, 0.96, 1289.85, -187.82)" gradientUnits="userSpaceOnUse"><stop offset="0" stop-color="#c6c6c6"/><stop offset="0.04" stop-color="#ccc"/><stop offset="0.24" stop-color="#e6e6e6"/><stop offset="0.36" stop-color="#f0f0f0"/><stop offset="0.45" stop-color="#e6e6e6"/><stop offset="0.61" stop-color="#cdcdcd"/><stop offset="0.8" stop-color="#a3a3a3"/><stop offset="1" stop-color="#707070"/></linearGradient><linearGradient id="linear-gradient-28" x1="796.45" y1="585.78" x2="835.12" y2="255.5" gradientTransform="matrix(-0.96, 0.29, 0.29, 0.96, 1289.85, -187.82)" gradientUnits="userSpaceOnUse"><stop offset="0.06" stop-color="#fff"/><stop offset="1" stop-color="#c6c6c6"/></linearGradient><linearGradient id="linear-gradient-29" x1="1227.48" y1="471.01" x2="1227.48" y2="706.65" gradientTransform="matrix(-0.96, 0.29, 0.29, 0.96, 1289.85, -187.82)" gradientUnits="userSpaceOnUse"><stop offset="0" stop-color="#00a826"/><stop offset="0.66" stop-color="#00a826"/><stop offset="0.98" stop-color="#00a826"/></linearGradient><linearGradient id="linear-gradient-30" x1="1003.4" y1="459.64" x2="1013.31" y2="753.79" gradientTransform="matrix(-0.96, 0.29, 0.29, 0.96, 1289.85, -187.82)" gradientUnits="userSpaceOnUse"><stop offset="0.06" stop-color="#00a826"/><stop offset="0.21" stop-color="#029f23"/><stop offset="0.44" stop-color="#06881b"/><stop offset="0.73" stop-color="#0e620f"/><stop offset="0.96" stop-color="#153f03"/></linearGradient><linearGradient id="linear-gradient-31" x1="1221.35" y1="469.84" x2="1224.64" y2="704.07" gradientTransform="matrix(-0.96, 0.29, 0.29, 0.96, 1289.85, -187.82)" gradientUnits="userSpaceOnUse"><stop offset="0.02" stop-color="#00a826"/><stop offset="0.55" stop-color="#00a826"/><stop offset="0.98" stop-color="#00a826"/></linearGradient><linearGradient id="linear-gradient-32" x1="1106.49" y1="462" x2="1110.28" y2="731.68" gradientTransform="matrix(-0.96, 0.29, 0.29, 0.96, 1289.85, -187.82)" gradientUnits="userSpaceOnUse"><stop offset="0.04" stop-color="#00a826"/><stop offset="0.67" stop-color="#00a826"/><stop offset="0.98" stop-color="#00a826"/></linearGradient><linearGradient id="linear-gradient-33" x1="1018.08" y1="469.26" x2="1021.75" y2="730.36" gradientTransform="matrix(-0.96, 0.29, 0.29, 0.96, 1289.85, -187.82)" gradientUnits="userSpaceOnUse"><stop offset="0.04" stop-color="#00a826"/><stop offset="0.68" stop-color="#00a826"/><stop offset="1" stop-color="#00a826"/></linearGradient><linearGradient id="linear-gradient-34" x1="1043.18" y1="468.55" x2="1046.84" y2="728.8" xlink:href="#linear-gradient-33"/><linearGradient id="linear-gradient-35" x1="1073.48" y1="466.87" x2="1077.15" y2="727.87" xlink:href="#linear-gradient-33"/><linearGradient id="linear-gradient-36" x1="1098.74" y1="474.05" x2="1102.4" y2="734.31" gradientTransform="matrix(-0.97, 0.26, 0.26, 0.96, 1309.21, -167.12)" gradientUnits="userSpaceOnUse"><stop offset="0.04" stop-color="#00a826"/><stop offset="0.7" stop-color="#00a826"/><stop offset="1" stop-color="#00a826"/></linearGradient><linearGradient id="linear-gradient-37" x1="305.62" y1="624.66" x2="620.22" y2="624.66" gradientTransform="matrix(-1, 0, 0, 1, 1487.21, -81.76)" gradientUnits="userSpaceOnUse"><stop offset="0.06" stop-color="#fff"/><stop offset="0.96" stop-color="#c6c6c6"/></linearGradient><linearGradient id="linear-gradient-38" x1="642.15" y1="605.37" x2="275.92" y2="580.12" gradientTransform="matrix(-0.99, 0.16, 0.16, 0.99, 1392.82, -112.79)" gradientUnits="userSpaceOnUse"><stop offset="0.01" stop-color="#36aa0b"/><stop offset="1" stop-color="#00a826"/></linearGradient><linearGradient id="linear-gradient-39" x1="548.78" y1="542.27" x2="554.96" y2="719.35" gradientTransform="matrix(-0.96, 0.29, 0.29, 0.96, 1289.85, -187.82)" gradientUnits="userSpaceOnUse"><stop offset="0.06" stop-color="#fff"/><stop offset="0.65" stop-color="#c6c6c6"/><stop offset="0.72" stop-color="#bdbdbd"/><stop offset="0.82" stop-color="#a6a6a6"/><stop offset="0.95" stop-color="gray"/><stop offset="1" stop-color="#707070"/></linearGradient><linearGradient id="linear-gradient-40" x1="559.45" y1="622.44" x2="559.47" y2="634.98" gradientTransform="matrix(-1, 0, 0, 1, 1492.27, -54.38)" gradientUnits="userSpaceOnUse"><stop offset="0.36" stop-color="#fff"/><stop offset="0.66" stop-color="#c6c6c6"/></linearGradient><linearGradient id="linear-gradient-41" x1="532.68" y1="549.62" x2="532.7" y2="562.17" gradientTransform="matrix(-1.14, 0.18, 0.15, 0.99, 1354.05, -153.71)" xlink:href="#linear-gradient-40"/><linearGradient id="linear-gradient-42" x1="539.36" y1="826.33" x2="540.16" y2="814.79" gradientTransform="matrix(-1, -0.04, -0.07, 0.56, 1557.09, 196.11)" gradientUnits="userSpaceOnUse"><stop offset="0.55" stop-color="#afafaf"/><stop offset="0.64" stop-color="#afafaf"/></linearGradient><linearGradient id="linear-gradient-43" x1="480.26" y1="567.01" x2="475.55" y2="839.02" gradientTransform="matrix(-0.96, 0.29, 0.29, 0.96, 1289.85, -187.82)" xlink:href="#linear-gradient-37"/><linearGradient id="linear-gradient-44" x1="479.54" y1="567.38" x2="478.49" y2="731.74" gradientTransform="matrix(-0.96, 0.29, 0.29, 0.96, 1289.85, -187.82)" gradientUnits="userSpaceOnUse"><stop offset="0.02" stop-color="#00a826"/><stop offset="0.95" stop-color="#49b22b"/></linearGradient><linearGradient id="linear-gradient-45" x1="479.2" y1="583.48" x2="475.67" y2="787.36" gradientTransform="matrix(-0.96, 0.29, 0.29, 0.96, 1289.85, -187.82)" xlink:href="#linear-gradient-37"/><linearGradient id="linear-gradient-46" x1="477.93" y1="590.48" x2="476.88" y2="710.16" xlink:href="#linear-gradient-44"/><linearGradient id="linear-gradient-47" x1="1144.12" y1="478.47" x2="1143.83" y2="470.25" gradientTransform="matrix(-0.96, 0.29, 0.29, 0.96, 1195.87, -202.98)" xlink:href="#linear-gradient-11"/><linearGradient id="linear-gradient-48" x1="1158.96" y1="496.03" x2="1158.61" y2="485.78" gradientTransform="matrix(-0.96, 0.29, 0.29, 0.96, 1195.87, -202.98)" xlink:href="#linear-gradient-11"/></defs><title>megaphone_7</title><g id="megaphone"><circle class="cls-1" cx="641.2" cy="641.2" r="641.2"/><path class="cls-2" d="M492.9,882.6s-3.6,20.5,37.1,102.9c32.9,66.6,119.1,101.1,130,110.1,0,0,34.6-23.5,36-24.2,20.3-10-9.7-48.2-58.8-98.7-64.8-66.6-62.9-144.6-62.9-144.6Z" transform="translate(-94 -15.2)"/><path class="cls-3" d="M483.3,884.4s-3.6,20.4,37.2,102.9c32.9,66.5,119.1,101.1,129.9,110.1,0,0,34.6-23.6,36-24.3,20.3-9.9-9.7-48.2-58.8-98.6-64.8-66.6-62.9-144.6-62.9-144.6Z" transform="translate(-94 -15.2)"/><path class="cls-4" d="M460.8,901.1S457.3,921.6,498,1004c32.9,66.6,126.5,78,137.3,87,0,0,27.2-.4,28.6-1.1,20.4-9.9-9.6-48.2-58.8-98.7-64.7-66.6-62.9-144.5-62.9-144.5Z" transform="translate(-94 -15.2)"/><path class="cls-5" d="M449.3,910.3s-.8,19.6,43.5,100.2c32,58.3,60.4,88.6,71.3,97.7,0,0,93.2-11.1,94.6-11.8,20.3-10-9.7-48.2-58.8-98.7-64.8-66.6-65.7-144-65.7-144Z" transform="translate(-94 -15.2)"/><path class="cls-6" d="M538.8,861.3a12.6,12.6,0,0,0,17,5.3l39.8-21.1a12.6,12.6,0,0,0,5.2-17l-31.5-59.6a12.7,12.7,0,0,0-17-5.2l-39.8,21.1a12.5,12.5,0,0,0-5.2,17Z" transform="translate(-94 -15.2)"/><path class="cls-7" d="M420.5,929a12.6,12.6,0,0,0,17.1,4.7l128.8-72.8a14,14,0,0,1-15.5-6l-55.5-97.7a12.6,12.6,0,0,0-17.1-4.7L369.7,814.2a12.6,12.6,0,0,0-4.7,17.1Z" transform="translate(-94 -15.2)"/><polygon class="cls-8" points="459.4 875.8 478.3 920.6 493.4 912.4 474.2 868.2 459.4 875.8"/><polygon class="cls-9" points="461.3 876.3 488.1 913.5 479.2 918 461.3 876.3"/><polygon class="cls-10" points="488.1 913.5 500.6 906.7 473.9 869.9 461.3 876.3 488.1 913.5"/><polygon class="cls-11" points="567.7 1079.2 605.5 1053.7 605.2 1060.9 567.7 1086.8 567.7 1079.2"/><path class="cls-12" d="M252.8,734.6c-14.3-48.2-6-94.5,18.1-113.1a39,39,0,0,0-14.8,1.5c-34,10.1-48,63.8-31.3,119.9s57.8,93.4,91.8,83.3a39.5,39.5,0,0,0,13.2-6.8C299.4,817,267.2,782.7,252.8,734.6Z" transform="translate(-94 -15.2)"/><path class="cls-13" d="M230.7,650.5a3.4,3.4,0,0,0,4.2,2.4l13-3.9a3.4,3.4,0,0,0,2.3-4.3h0a3.4,3.4,0,0,0-4.2-2.3l-13,3.9a3.3,3.3,0,0,0-2.3,4.2Z" transform="translate(-94 -15.2)"/><path class="cls-14" d="M238.5,638.1a3.5,3.5,0,0,0,4.3,2.3l13-3.9a3.4,3.4,0,0,0,2.3-4.2h0a3.5,3.5,0,0,0-4.3-2.3l-13,3.8a3.5,3.5,0,0,0-2.3,4.3Z" transform="translate(-94 -15.2)"/><path class="cls-15" d="M226.1,663.2a3.4,3.4,0,0,0,4.2,2.3l13-3.9a3.4,3.4,0,0,0,2.3-4.2h0a3.5,3.5,0,0,0-4.3-2.4l-12.9,3.9a3.3,3.3,0,0,0-2.3,4.3Z" transform="translate(-94 -15.2)"/><path class="cls-16" d="M222.5,676.7a3.5,3.5,0,0,0,4.3,2.3l12.9-3.9a3.2,3.2,0,0,0,2.3-4.2h0a3.3,3.3,0,0,0-4.2-2.3l-13,3.8a3.5,3.5,0,0,0-2.3,4.3Z" transform="translate(-94 -15.2)"/><path class="cls-17" d="M221.1,689a3.4,3.4,0,0,0,4.2,2.3l13-3.9a3.4,3.4,0,0,0,2.3-4.2h0a3.4,3.4,0,0,0-4.3-2.3l-12.9,3.8a3.5,3.5,0,0,0-2.3,4.3Z" transform="translate(-94 -15.2)"/><path class="cls-18" d="M220.9,701.5a3.4,3.4,0,0,0,4.3,2.3l12.9-3.8a3.5,3.5,0,0,0,2.3-4.3h0a3.3,3.3,0,0,0-4.2-2.3l-13,3.8a3.5,3.5,0,0,0-2.3,4.3Z" transform="translate(-94 -15.2)"/><path class="cls-19" d="M221.8,714.3a3.5,3.5,0,0,0,4.3,2.3l13-3.8a3.5,3.5,0,0,0,2.3-4.3h0a3.5,3.5,0,0,0-4.3-2.3L224.2,710a3.5,3.5,0,0,0-2.4,4.3Z" transform="translate(-94 -15.2)"/><path class="cls-20" d="M223.9,726.8a3.5,3.5,0,0,0,4.3,2.3l12.9-3.9a3.4,3.4,0,0,0,2.4-4.2h0a3.5,3.5,0,0,0-4.3-2.3l-13,3.8a3.5,3.5,0,0,0-2.3,4.3Z" transform="translate(-94 -15.2)"/><path class="cls-21" d="M227,740.6a3.5,3.5,0,0,0,4.3,2.3l12.9-3.9a3.3,3.3,0,0,0,2.3-4.2h0a3.3,3.3,0,0,0-4.2-2.3l-13,3.8a3.5,3.5,0,0,0-2.3,4.3Z" transform="translate(-94 -15.2)"/><path class="cls-22" d="M231.3,752.9a3.3,3.3,0,0,0,4.2,2.3l13-3.8a3.5,3.5,0,0,0,2.3-4.3h0a3.3,3.3,0,0,0-4.2-2.3l-13,3.8a3.5,3.5,0,0,0-2.3,4.3Z" transform="translate(-94 -15.2)"/><path class="cls-23" d="M236.4,764.6a3.5,3.5,0,0,0,4.3,2.3l12.9-3.9a3.3,3.3,0,0,0,2.3-4.2h0a3.2,3.2,0,0,0-4.2-2.3l-13,3.8a3.5,3.5,0,0,0-2.3,4.3Z" transform="translate(-94 -15.2)"/><path class="cls-24" d="M241.8,775.9a3.5,3.5,0,0,0,4.3,2.4l12.9-3.9a3.5,3.5,0,0,0,2.4-4.3h0a3.5,3.5,0,0,0-4.3-2.3l-13,3.9a3.4,3.4,0,0,0-2.3,4.2Z" transform="translate(-94 -15.2)"/><path class="cls-25" d="M248.8,787.1a3.5,3.5,0,0,0,4.3,2.3l12.9-3.9a3.4,3.4,0,0,0,2.3-4.3h0a3.4,3.4,0,0,0-4.2-2.3l-13,3.9a3.5,3.5,0,0,0-2.3,4.3Z" transform="translate(-94 -15.2)"/><path class="cls-26" d="M256.7,797.7a3.4,3.4,0,0,0,4.2,2.3l13-3.9a3.4,3.4,0,0,0,2.3-4.2h0a3.4,3.4,0,0,0-4.3-2.3L259,793.4a3.5,3.5,0,0,0-2.3,4.3Z" transform="translate(-94 -15.2)"/><path class="cls-27" d="M266.1,807.6a3.5,3.5,0,0,0,4.3,2.3l13-3.9a3.5,3.5,0,0,0,2.3-4.3h0a3.5,3.5,0,0,0-4.3-2.3l-12.9,3.9a3.4,3.4,0,0,0-2.4,4.3Z" transform="translate(-94 -15.2)"/><path class="cls-28" d="M279.4,817.6a3.3,3.3,0,0,0,4.2,2.3l13-3.8a3.5,3.5,0,0,0,2.3-4.3h0a3.5,3.5,0,0,0-4.3-2.3l-12.9,3.9a3.3,3.3,0,0,0-2.3,4.2Z" transform="translate(-94 -15.2)"/><path class="cls-29" d="M854.8,261.6S788.5,412.7,673.2,475.1c-102.6,55.5-186.9,72-186.9,72s-33.2,64.4-11.6,133.2,78,112,78,112,90.9-20.3,211.7,1.4c140.8,25.1,274.9,104.6,274.9,104.6s-160-214.1-173.5-336.6S854.8,261.6,854.8,261.6Z" transform="translate(-94 -15.2)"/><path class="cls-30" d="M848.3,396.6S782.7,484,667.4,529.2c-99.5,39-205.4,61.6-205.4,61.6l-.4,34.5s137.7-28.8,225.8-49.2c111-25.6,174-43.6,174-43.6Z" transform="translate(-94 -15.2)"/><path class="cls-31" d="M270.4,729.9c-15.9-53.5-6.7-105,20.1-125.7a46,46,0,0,0-16.5,1.7c-37.7,11.2-53.2,70.9-34.7,133.2S303.5,843,341.2,831.7a44.7,44.7,0,0,0,14.7-7.6C322.2,821.5,286.4,783.4,270.4,729.9Z" transform="translate(-94 -15.2)"/><path class="cls-32" d="M481.3,682.4c-17.7-59.3-7.4-116.5,22.3-139.4a48.6,48.6,0,0,0-18.2,1.9c-42,12.5-59.2,78.6-38.7,147.8S518,807.8,559.9,795.3c5.9-1.7,12.3-3.2,17.2-7C539.7,785.4,499,741.8,481.3,682.4Z" transform="translate(-94 -15.2)"/><path class="cls-33" d="M274,728.8c-16-53.5-6.8-105,20-125.6a43.8,43.8,0,0,0-16.5,1.6c-37.7,11.3-53.2,70.9-34.7,133.3S307,841.9,344.7,830.7a44.7,44.7,0,0,0,14.7-7.6C325.7,820.4,289.9,782.3,274,728.8Z" transform="translate(-94 -15.2)"/><path class="cls-34" d="M255.9,735.9c-20.2-68-2.6-133.3,39.3-145.7l5-1.3,183-46.1c5.7-1.6,12.7-3,18.2,0-29.7,23-40.8,81-23.1,140.5s59.1,103.6,96.5,106.6c-2.8,5-11.7,6.3-17.6,8.1l-4.3,1L363.7,837.6h-.1C322.7,845.4,275.4,801.3,255.9,735.9Z" transform="translate(-94 -15.2)"/><path class="cls-35" d="M482,543.6l3.2-.8c-39.9,14.6-55.8,79.6-35.6,147.5S518.7,803.9,560,794.4l-3.1,1c-41.9,12.5-92.7-33.8-113.3-103.3S440.1,556.1,482,543.6Z" transform="translate(-94 -15.2)"/><path class="cls-36" d="M457.7,550.1l3.2-.8c-39.8,14.6-55.8,79.4-35.7,147.1s69,113.2,110.3,103.6l-3.1,1.1c-41.9,12.4-92.6-33.6-113.2-102.9S415.8,562.6,457.7,550.1Z" transform="translate(-94 -15.2)"/><path class="cls-37" d="M428.2,557.1l3.2-.8c-39.8,14.6-55.8,79.6-35.6,147.5s69.1,113.5,110.4,104l-3.1,1c-41.9,12.5-92.7-33.7-113.3-103.2S386.3,569.6,428.2,557.1Z" transform="translate(-94 -15.2)"/><path class="cls-38" d="M400.7,564l3-.7c-38.1,12.8-54.3,76.4-36.2,144.5s63.7,115.1,103,107.4l-2.9.9c-40,10.6-87.4-37.2-105.9-106.8S360.7,574.6,400.7,564Z" transform="translate(-94 -15.2)"/><ellipse class="cls-39" cx="1024.3" cy="542.9" rx="157.3" ry="341.8" transform="translate(-206.3 299.5) rotate(-16.6)"/><path class="cls-40" d="M1115.2,913.8c91.5-23.7,123.6-206,71.6-407.3S1018.6,161.3,927,185,803.4,391.1,855.4,592.3,1023.7,937.5,1115.2,913.8ZM888.9,582.6C842,401.6,866,238.9,942.5,219.2s176.4,111,223.3,292,22.9,343.7-53.5,363.4S935.8,763.6,888.9,582.6Z" transform="translate(-94 -15.2)"/><path class="cls-41" d="M990,484.4,855.2,504.9l9.5,75.2c2,15.7,37.2,95.8,37.2,95.8l130.3-49.7Z" transform="translate(-94 -15.2)"/><rect class="cls-42" x="883.8" y="568.4" width="98.1" height="11.24" transform="translate(-218.9 274.7) rotate(-16.6)"/><polygon class="cls-43" points="776.7 503.4 882.5 487 888.1 474.8 774.9 492.3 776.7 503.4"/><rect class="cls-44" x="905.6" y="633" width="116.1" height="6.32" transform="translate(-255.3 360.8) rotate(-20.4)"/><path class="cls-45" d="M979,564.9c11.7,39.1,35.5,66.6,53.2,61.3s22.6-41.3,10.9-80.4-35.4-66.6-53.1-61.4S967.4,525.7,979,564.9Z" transform="translate(-94 -15.2)"/><path class="cls-46" d="M891.2,582.1c-46.1-177.8-22.7-337.6,52.3-357S1116.6,334.3,1162.7,512s22.6,337.6-52.4,357S937.2,759.9,891.2,582.1Zm222,325.4c89.8-23.3,121.1-202.4,70.1-400S1018.1,168.3,928.4,191.6s-121.2,202.3-70.1,400S1023.5,930.7,1113.2,907.5Z" transform="translate(-94 -15.2)"/><path class="cls-46" d="M890.1,582.2c-46.2-178.5-22.4-339.1,53.3-358.6S1117.7,333,1164,511.5s22.4,339.1-53.2,358.6S936.4,760.8,890.1,582.2Zm223.6,324.1c89.3-23.1,120.3-201.7,69.4-398.9S1018.5,169,929.2,192.1,808.9,393.8,859.8,591,1024.4,929.4,1113.7,906.3Z" transform="translate(-94 -15.2)"/><path class="cls-46" d="M889.1,582.4c-46.4-179.3-22.2-340.6,54.1-360.3S1118.9,331.8,1165.3,511s22.1,340.6-54.1,360.3S935.5,761.6,889.1,582.4Zm225.1,322.8c88.8-23,119.5-201.1,68.7-397.9S1018.8,169.7,930,192.6,810.5,393.7,861.3,590.5,1025.4,928.1,1114.2,905.2Z" transform="translate(-94 -15.2)"/><path class="cls-46" d="M888.1,582.5c-46.6-180-22-342,54.9-361.9s177,109.9,223.6,289.9,21.9,342.1-55,362S934.6,762.5,888.1,582.5ZM1114.6,904c88.4-22.8,118.8-200.4,68-396.7s-163.5-337-251.8-314.1-118.7,200.4-68,396.7S1026.3,926.8,1114.6,904Z" transform="translate(-94 -15.2)"/><path class="cls-46" d="M887.1,582.7c-46.7-180.8-21.8-343.6,55.8-363.6s178.2,110.2,225,290.9,21.7,343.6-55.9,363.6S933.8,763.4,887.1,582.7Zm228,320.2c87.8-22.7,118-199.9,67.3-395.7S1019.5,171,931.7,193.7s-118,199.8-67.3,395.7S1027.3,925.6,1115.1,902.9Z" transform="translate(-94 -15.2)"/><path class="cls-46" d="M886,582.8c-46.8-181.5-21.5-345,56.7-365.2s179.6,110.5,226.4,292,21.5,345-56.6,365.2S932.9,764.3,886,582.8Zm229.6,318.9c87.3-22.5,117.2-199.2,66.6-394.6S1019.8,171.7,932.5,194.2,815.3,393.5,865.9,588.8,1028.2,924.3,1115.6,901.7Z" transform="translate(-94 -15.2)"/><path class="cls-46" d="M885,583c-47-182.3-21.2-346.5,57.6-366.9s180.8,110.7,227.8,293,21.3,346.4-57.5,366.8S932,765.2,885,583Zm231.1,317.6c86.8-22.5,116.3-198.6,65.9-393.5S1020.2,172.4,933.3,194.8,816.9,393.4,867.4,588.3,1029.2,923,1116.1,900.6Z" transform="translate(-94 -15.2)"/><path class="cls-46" d="M884,583.1c-47.2-182.9-21-348,58.4-368.5s182.1,111,229.3,294,21.1,347.9-58.4,368.5S931.2,766.1,884,583.1Zm232.5,316.3c86.4-22.3,115.6-198,65.3-392.4S1020.5,173,934.1,195.3s-115.6,198-65.2,392.4S1030.1,921.7,1116.5,899.4Z" transform="translate(-94 -15.2)"/><path class="cls-46" d="M883,583.3C835.6,399.6,862.2,233.8,942.3,213S1125.7,324.4,1173,508.1s20.8,349.4-59.3,370.2S930.3,767,883,583.3Zm234,315c85.9-22.2,114.8-197.4,64.5-391.4S1020.9,173.7,934.9,195.8,820.1,393.2,870.4,587.2,1031.1,920.4,1117,898.3Z" transform="translate(-94 -15.2)"/><path class="cls-46" d="M881.9,583.4C834.4,399,861.4,232.5,942.1,211.5s184.7,111.6,232.2,296.1,20.6,350.9-60.1,371.8S929.4,767.8,881.9,583.4Zm235.6,313.7c85.4-22,114-196.7,63.8-390.2S1021.2,174.4,935.8,196.4s-114,196.7-63.9,390.2S1032,919.1,1117.5,897.1Z" transform="translate(-94 -15.2)"/><path class="cls-47" d="M983.7,563.5c10,33.4,30.3,56.9,45.4,52.4s19.3-35.3,9.4-68.7-30.3-56.9-45.4-52.4S973.8,530,983.7,563.5Z" transform="translate(-94 -15.2)"/><path class="cls-48" d="M988.5,562c8.8,29.4,26.3,50,39.1,46.2s16.2-30.7,7.5-60S1008.9,498.1,996,502,979.8,532.7,988.5,562Z" transform="translate(-94 -15.2)"/><path class="cls-49" d="M1000.1,558.6c4.7,15.8,14.1,26.9,21,24.8s8.7-16.5,4-32.3-14.1-26.9-21-24.8S995.4,542.8,1000.1,558.6Z" transform="translate(-94 -15.2)"/><polygon class="cls-50" points="208.2 587.8 255.8 576.7 261.1 568.1 212.6 579.5 208.2 587.8"/><polygon class="cls-51" points="199.1 607.8 248.5 597.3 251.2 587.9 202.4 598.7 199.1 607.8"/></g></svg>