<svg id="Layer_1" data-name="Layer 1" xmlns="http://www.w3.org/2000/svg" xmlns:xlink="http://www.w3.org/1999/xlink" viewBox="0 0 121.33 119.68"><defs><style>.cls-1{fill:url(#linear-gradient);}.cls-2{fill:url(#linear-gradient-2);}.cls-3{fill:url(#linear-gradient-3);}.cls-4{fill:url(#linear-gradient-4);}.cls-5{fill:url(#linear-gradient-5);}.cls-6{fill:url(#linear-gradient-6);}.cls-7{fill:url(#linear-gradient-7);}.cls-8{fill:url(#linear-gradient-8);}.cls-9{fill:#290f0f;}.cls-18,.cls-9{opacity:0.77;}.cls-10{fill:url(#linear-gradient-9);}.cls-11{fill:url(#linear-gradient-10);}.cls-12{fill:url(#linear-gradient-11);}.cls-13{fill:url(#linear-gradient-12);}.cls-14{fill:url(#linear-gradient-13);}.cls-15{fill:url(#linear-gradient-14);}.cls-16{fill:url(#linear-gradient-15);}.cls-17{fill:url(#linear-gradient-16);}.cls-18{fill:#4b1212;}.cls-19{fill:url(#radial-gradient);}.cls-20{fill:url(#radial-gradient-2);}</style><linearGradient id="linear-gradient" x1="-629.63" y1="739.41" x2="-626.09" y2="716.93" gradientTransform="matrix(0.88, 0.48, -0.48, 0.88, 942.22, -229.57)" gradientUnits="userSpaceOnUse"><stop offset="0" stop-color="#cca431"/><stop offset="0.99" stop-color="#5d3f17"/></linearGradient><linearGradient id="linear-gradient-2" x1="-563.66" y1="683.57" x2="-585.43" y2="683.57" gradientTransform="matrix(0.88, 0.48, -0.48, 0.88, 942.22, -229.57)" gradientUnits="userSpaceOnUse"><stop offset="0" stop-color="#2457a7"/><stop offset="0.99" stop-color="#214183"/></linearGradient><linearGradient id="linear-gradient-3" x1="-927.81" y1="1819.77" x2="-927.81" y2="1799.23" gradientTransform="matrix(0.52, 0.85, -0.85, 0.52, 2071.09, -50.05)" gradientUnits="userSpaceOnUse"><stop offset="0" stop-color="#cca431"/><stop offset="0.83" stop-color="#b07d2c"/><stop offset="0.86" stop-color="#916624"/><stop offset="0.9" stop-color="#6b4a1b"/><stop offset="0.93" stop-color="#5d3f17"/></linearGradient><linearGradient id="linear-gradient-4" x1="-635.12" y1="682.97" x2="-500.68" y2="676.23" gradientTransform="matrix(0.88, 0.48, -0.48, 0.88, 942.22, -229.57)" gradientUnits="userSpaceOnUse"><stop offset="0" stop-color="#3f74b1"/><stop offset="0.99" stop-color="#1a5eac"/></linearGradient><linearGradient id="linear-gradient-5" x1="-938.48" y1="1827.06" x2="-918.13" y2="1827.06" gradientTransform="matrix(0.52, 0.85, -0.85, 0.52, 2071.09, -50.05)" gradientUnits="userSpaceOnUse"><stop offset="0" stop-color="#d1b24e"/><stop offset="0.24" stop-color="#bd892c"/><stop offset="0.29" stop-color="#c39535"/><stop offset="0.44" stop-color="#f1cd51"/><stop offset="0.44" stop-color="#f1cd51"/><stop offset="0.59" stop-color="#f1cd51"/><stop offset="0.64" stop-color="#dab144"/><stop offset="0.7" stop-color="#c19136"/><stop offset="0.75" stop-color="#b17d2d"/><stop offset="0.79" stop-color="#ab762a"/><stop offset="0.97" stop-color="#563913"/></linearGradient><linearGradient id="linear-gradient-6" x1="-933.22" y1="1828.82" x2="-920.57" y2="1828.82" gradientTransform="matrix(0.52, 0.85, -0.85, 0.52, 2071.09, -50.05)" gradientUnits="userSpaceOnUse"><stop offset="0" stop-color="#fee683"/><stop offset="0.15" stop-color="#fae17d"/><stop offset="0.34" stop-color="#f0d46d"/><stop offset="0.56" stop-color="#e0be51"/><stop offset="0.77" stop-color="#cca431"/></linearGradient><linearGradient id="linear-gradient-7" x1="-927.99" y1="1807.78" x2="-927.99" y2="1800.53" gradientTransform="matrix(0.52, 0.85, -0.85, 0.52, 2071.09, -50.05)" gradientUnits="userSpaceOnUse"><stop offset="0" stop-color="#fffad8"/><stop offset="0.07" stop-color="#fef7cf"/><stop offset="0.17" stop-color="#fbf0b7"/><stop offset="0.3" stop-color="#f7e491"/><stop offset="0.77" stop-color="#ab762a"/></linearGradient><linearGradient id="linear-gradient-8" x1="-616.81" y1="721.13" x2="-615.76" y2="727.3" gradientTransform="matrix(0.88, 0.48, -0.48, 0.88, 942.22, -229.57)" gradientUnits="userSpaceOnUse"><stop offset="0" stop-color="#ffd96b"/><stop offset="0.33" stop-color="#e6bb58"/><stop offset="1" stop-color="#ab762a"/></linearGradient><linearGradient id="linear-gradient-9" x1="32.98" y1="105.65" x2="36.52" y2="83.16" gradientTransform="matrix(1, 0, 0, 1, 0, 0)" xlink:href="#linear-gradient"/><linearGradient id="linear-gradient-10" x1="98.41" y1="49.88" x2="76.85" y2="49.88" gradientUnits="userSpaceOnUse"><stop offset="0" stop-color="#c53d27"/><stop offset="0.99" stop-color="#91251d"/></linearGradient><linearGradient id="linear-gradient-11" x1="-668.83" y1="939.66" x2="-668.83" y2="919.12" gradientTransform="matrix(0.87, 0.5, -0.5, 0.87, 1075.09, -387.42)" xlink:href="#linear-gradient-3"/><linearGradient id="linear-gradient-12" x1="27.71" y1="49.24" x2="162.15" y2="42.5" xlink:href="#linear-gradient-10"/><linearGradient id="linear-gradient-13" x1="-679.5" y1="946.95" x2="-659.15" y2="946.95" gradientTransform="matrix(0.87, 0.5, -0.5, 0.87, 1075.09, -387.42)" xlink:href="#linear-gradient-5"/><linearGradient id="linear-gradient-14" x1="-674.24" y1="948.71" x2="-661.59" y2="948.71" gradientTransform="matrix(0.87, 0.5, -0.5, 0.87, 1075.09, -387.42)" xlink:href="#linear-gradient-6"/><linearGradient id="linear-gradient-15" x1="-669.01" y1="927.67" x2="-669.01" y2="920.42" gradientTransform="matrix(0.87, 0.5, -0.5, 0.87, 1075.09, -387.42)" xlink:href="#linear-gradient-7"/><linearGradient id="linear-gradient-16" x1="46.02" y1="87.4" x2="47.06" y2="93.57" gradientTransform="matrix(1, 0, 0, 1, 0, 0)" xlink:href="#linear-gradient-8"/><radialGradient id="radial-gradient" cx="71.71" cy="41.29" r="18.34" gradientUnits="userSpaceOnUse"><stop offset="0.13" stop-color="#fff"/><stop offset="0.23" stop-color="#fafafa"/><stop offset="0.35" stop-color="#eaecea"/><stop offset="0.49" stop-color="#d1d5d1"/><stop offset="0.63" stop-color="#aeb4ae"/><stop offset="0.74" stop-color="#8d968e"/><stop offset="0.81" stop-color="#8c9685"/><stop offset="0.93" stop-color="#8a956e"/><stop offset="1" stop-color="#88945b"/></radialGradient><radialGradient id="radial-gradient-2" cx="71.77" cy="41.19" r="9.69" gradientUnits="userSpaceOnUse"><stop offset="0.06" stop-color="#fff"/><stop offset="0.43" stop-color="#fafafa"/><stop offset="0.9" stop-color="#ebedea"/><stop offset="1" stop-color="#e7e9e6"/></radialGradient></defs><title>TableTennis</title><path class="cls-1" d="M74.11,97.77,56.35,69.37s-20.5-4.65-20.47-1.86,0,6.21.21,11.35a19.22,19.22,0,0,1-5,14.73,89.2,89.2,0,0,0-7.77,10.48l7.15,7S33.2,109.4,39.6,108s11.36.32,15.94,2.91,6.9,4.68,9.43,6S74.11,97.77,74.11,97.77Z" transform="translate(-3.33 -4.35)"/><path class="cls-2" d="M103.15,110.86c21-13,27.26-36.45,15.93-54.44-.1-.17-1-1.92-2-3.51s-2.19-3.15-2.34-3.35C101.57,32.41,78.6,27,57.1,39.07c-13.15,7.4,10,55.75,9,69L65,116.86C77.55,122,90.31,118.76,103.15,110.86Z" transform="translate(-3.33 -4.35)"/><path class="cls-3" d="M75,95.84,57.28,67.44S35.63,64.16,35.66,67s.81,5.27,1.06,10.41-.47,9.45-4.75,14.3a88.47,88.47,0,0,0-7.76,10.48L28,108.27a94.54,94.54,0,0,0,13.17-1.84c6.41-1.45,10.69-.08,15.26,2.51s6.5,4.42,9,5.73S75,95.84,75,95.84Z" transform="translate(-3.33 -4.35)"/><path class="cls-4" d="M103.05,109.16c21-13,26.66-35.34,17-54.67-.09-.18-1-1.92-2-3.51s-2.19-3.15-2.34-3.35C102.49,30.48,79.52,25,58,37.14,44.88,44.54,36.63,54,35.55,67.19l29.64,47.43C77.77,119.8,90.21,117.06,103.05,109.16Z" transform="translate(-3.33 -4.35)"/><path class="cls-5" d="M13.85,123.56s-3.14,0-7.5-7c-4.52-7.24-2.62-8.62-2.62-8.62L44.91,86l7.31,11.69-14.58,9.44.59,1.15,1-.22Z" transform="translate(-3.33 -4.35)"/><path class="cls-6" d="M43.14,92s-34.69,20.29-36,20.94-.44,2.2.65,3.75,2.45,1.59,4.35.35S45.84,96.1,45.84,96.1A8.93,8.93,0,0,1,43.14,92Z" transform="translate(-3.33 -4.35)"/><path class="cls-7" d="M44.88,86,52.2,97.7s-4.15,3-8-3.28S44.88,86,44.88,86Z" transform="translate(-3.33 -4.35)"/><path class="cls-8" d="M42.42,106.23a20.72,20.72,0,0,1,9.33.59c3.76,1.25,7.32,3.76,9.85,5.43s-4.44-4.37-8.92-6.08C46.36,103.76,40.5,106.69,42.42,106.23Z" transform="translate(-3.33 -4.35)"/><path class="cls-9" d="M89.27,35.1l6.72-2s5.38,15.21.74,29.07-17.26,32.29-35.33,33c-4.09,0-3.21-.09-3.21-.09L52.93,95H48.42s-3.67.54-4.53.77-6.82,2.48-8.45,4.42c-1.16,1.78-8.73,11.85-8,15a63.69,63.69,0,0,0-6.76,4.14l9.21-25.61Z" transform="translate(-3.33 -4.35)"/><path class="cls-10" d="M60.62,72.08,31.36,55.78S11.17,61.61,12.54,64s3,5.46,5.66,9.84a19.24,19.24,0,0,1,2.7,15.34,89,89,0,0,0-1.75,12.92l9.65,2.69s1.61-2.81,6.53-7.16,10.1-5.2,15.36-5.14,7.82.73,10.67.65S60.62,72.08,60.62,72.08Z" transform="translate(-3.33 -4.35)"/><path class="cls-11" d="M91.59,70.23c12.18-21.51,6.28-43.82-11.54-56.07-.17-.11-1.78-1.21-3.42-2.12s-3.44-1.7-3.67-1.8C53.12,1.59,30.37,7.92,17.39,28.89,9.45,41.72,56,71.35,61.42,83.44l-.34,9.84C74.59,91.75,84.16,83.34,91.59,70.23Z" transform="translate(-3.33 -4.35)"/><path class="cls-12" d="M60.5,70,31.24,53.65s-20.54,7.58-19.17,10,3.26,4.23,6,8.6,4.15,8.51,2.74,14.82A90,90,0,0,0,19,100l6.31,3.51a94.33,94.33,0,0,0,10.64-8c4.92-4.35,9.33-5.22,14.59-5.16s7.81.73,10.66.66S60.5,70,60.5,70Z" transform="translate(-3.33 -4.35)"/><path class="cls-13" d="M91.47,68.09C103.65,46.59,97.75,24.27,79.93,12c-.17-.12-1.79-1.21-3.43-2.12S73.06,8.2,72.83,8.1C53-.54,30.25,5.78,17.26,26.75,9.32,39.58,6.66,51.83,12.09,63.92L61,91.15C74.46,89.61,84,81.21,91.47,68.09Z" transform="translate(-3.33 -4.35)"/><path class="cls-14" d="M20.31,123.76s-2.78,1.48-9.95-2.51C2.9,117.09,3.9,115,3.9,115L29.36,75.86l12,6.72L33.2,97.88l1.08.72L35,98Z" transform="translate(-3.33 -4.35)"/><path class="cls-15" d="M30.71,82s-20.58,34.52-21.4,35.72.67,2.14,2.37,3,2.92.21,4-1.79,19.4-34.59,19.4-34.59A9,9,0,0,1,30.71,82Z" transform="translate(-3.33 -4.35)"/><path class="cls-16" d="M29.35,75.89l12,6.71s-2.21,4.59-8.62,1S29.35,75.89,29.35,75.89Z" transform="translate(-3.33 -4.35)"/><path class="cls-17" d="M37,94.79a20.87,20.87,0,0,1,8.46-4c3.9-.71,8.23-.23,11.24,0s-6-1.68-10.73-1C39.21,90.73,35.5,96.13,37,94.79Z" transform="translate(-3.33 -4.35)"/><path class="cls-18" d="M87.3,46.41a14.23,14.23,0,1,1-14.23-14A14.1,14.1,0,0,1,87.3,46.41Z" transform="translate(-3.33 -4.35)"/><path class="cls-19" d="M86.46,44.34A14.36,14.36,0,1,1,72.11,30,14.35,14.35,0,0,1,86.46,44.34Z" transform="translate(-3.33 -4.35)"/><path class="cls-20" d="M80.09,39.06c0,3.45-3.65,6.24-8.15,6.24s-8.15-2.79-8.15-6.24,3.65-6.24,8.15-6.24S80.09,35.61,80.09,39.06Z" transform="translate(-3.33 -4.35)"/></svg>